ISO-10303-21;
HEADER;
FILE_DESCRIPTION (( 'STEP AP214' ),
    '1' );
FILE_NAME ('NFM15PC104D0J3.STEP',
    '2020-02-14T22:30:23',
    ( '' ),
    ( '' ),
    'SwSTEP 2.0',
    'SolidWorks 2018',
    '' );
FILE_SCHEMA (( 'AUTOMOTIVE_DESIGN' ));
ENDSEC;

DATA;
#1 = VERTEX_POINT ( 'NONE', #758 ) ;
#2 = FACE_OUTER_BOUND ( 'NONE', #203, .T. ) ;
#3 = DIRECTION ( 'NONE',  ( 0.0000000000000000000, 0.0000000000000000000, 1.000000000000000000 ) ) ;
#4 = VERTEX_POINT ( 'NONE', #174 ) ;
#5 = ADVANCED_FACE ( 'NONE', ( #727 ), #478, .T. ) ;
#6 = EDGE_CURVE ( 'NONE', #422, #336, #348, .T. ) ;
#7 = ORIENTED_EDGE ( 'NONE', *, *, #257, .F. ) ;
#8 = FACE_OUTER_BOUND ( 'NONE', #142, .T. ) ;
#9 = ORIENTED_EDGE ( 'NONE', *, *, #321, .F. ) ;
#10 = CARTESIAN_POINT ( 'NONE',  ( -0.5000000000000001110, 0.5000000000000000000, 0.2500000000000000000 ) ) ;
#11 = VECTOR ( 'NONE', #492, 1000.000000000000000 ) ;
#12 = VECTOR ( 'NONE', #828, 1000.000000000000000 ) ;
#13 = AXIS2_PLACEMENT_3D ( 'NONE', #403, #904, #107 ) ;
#14 = DIRECTION ( 'NONE',  ( 0.0000000000000000000, 1.000000000000000000, 0.0000000000000000000 ) ) ;
#15 = CARTESIAN_POINT ( 'NONE',  ( 0.4999999999999998890, 0.5000000000000000000, 0.2499999999999998890 ) ) ;
#16 = DIRECTION ( 'NONE',  ( 0.0000000000000000000, 0.0000000000000000000, 1.000000000000000000 ) ) ;
#17 = DIRECTION ( 'NONE',  ( 0.0000000000000000000, 1.000000000000000000, 0.0000000000000000000 ) ) ;
#18 = ORIENTED_EDGE ( 'NONE', *, *, #63, .T. ) ;
#19 = LINE ( 'NONE', #165, #861 ) ;
#20 = EDGE_CURVE ( 'NONE', #211, #583, #287, .T. ) ;
#21 = CARTESIAN_POINT ( 'NONE',  ( -1.355252715606880543E-17, 0.0000000000000000000, -0.2770833333333334036 ) ) ;
#22 = ORIENTED_EDGE ( 'NONE', *, *, #800, .T. ) ;
#23 = EDGE_CURVE ( 'NONE', #454, #150, #233, .T. ) ;
#24 = LINE ( 'NONE', #902, #416 ) ;
#25 = MANIFOLD_SOLID_BREP ( 'Split1[4]', #579 ) ;
#26 = PRESENTATION_STYLE_ASSIGNMENT (( #695 ) ) ;
#27 = DIRECTION ( 'NONE',  ( -1.000000000000000000, 0.0000000000000000000, 1.084202172485504434E-16 ) ) ;
#28 = ORIENTED_EDGE ( 'NONE', *, *, #653, .F. ) ;
#29 = VECTOR ( 'NONE', #821, 1000.000000000000000 ) ;
#30 = PLANE ( 'NONE',  #634 ) ;
#31 = EDGE_LOOP ( 'NONE', ( #45, #707, #127, #659 ) ) ;
#32 = DIRECTION ( 'NONE',  ( 0.0000000000000000000, -1.000000000000000000, 0.0000000000000000000 ) ) ;
#33 = DIRECTION ( 'NONE',  ( 1.000000000000000000, -0.0000000000000000000, -1.084202172485504434E-16 ) ) ;
#34 = CARTESIAN_POINT ( 'NONE',  ( 0.3300000000000001266, 0.0000000000000000000, 0.2499999999999998890 ) ) ;
#35 = AXIS2_PLACEMENT_3D ( 'NONE', #256, #328, #402 ) ;
#36 = ADVANCED_FACE ( 'NONE', ( #587 ), #267, .F. ) ;
#37 = CARTESIAN_POINT ( 'NONE',  ( -0.3300000000000001266, 0.5000000000000000000, 0.2500000000000000000 ) ) ;
#38 = VECTOR ( 'NONE', #505, 1000.000000000000000 ) ;
#39 = DIRECTION ( 'NONE',  ( 1.084202172485504434E-16, -0.0000000000000000000, 1.000000000000000000 ) ) ;
#40 = LINE ( 'NONE', #37, #12 ) ;
#41 = EDGE_CURVE ( 'NONE', #876, #422, #413, .T. ) ;
#42 = DIRECTION ( 'NONE',  ( 0.0000000000000000000, -1.000000000000000000, 0.0000000000000000000 ) ) ;
#43 = ADVANCED_FACE ( 'NONE', ( #306 ), #384, .T. ) ;
#44 = PLANE ( 'NONE',  #709 ) ;
#45 = ORIENTED_EDGE ( 'NONE', *, *, #41, .T. ) ;
#46 = EDGE_LOOP ( 'NONE', ( #83, #241, #80, #433 ) ) ;
#47 = LINE ( 'NONE', #832, #477 ) ;
#48 = ORIENTED_EDGE ( 'NONE', *, *, #159, .F. ) ;
#49 = DIRECTION ( 'NONE',  ( 0.0000000000000000000, 1.000000000000000000, 0.0000000000000000000 ) ) ;
#50 = CARTESIAN_POINT ( 'NONE',  ( -0.3300000000000001266, 0.5000000000000000000, 0.0000000000000000000 ) ) ;
#51 =( LENGTH_UNIT ( ) NAMED_UNIT ( * ) SI_UNIT ( .MILLI., .METRE. ) );
#52 = LINE ( 'NONE', #499, #703 ) ;
#53 = DIRECTION ( 'NONE',  ( 1.000000000000000000, -0.0000000000000000000, -1.084202172485504434E-16 ) ) ;
#54 = DIRECTION ( 'NONE',  ( 0.0000000000000000000, 1.000000000000000000, 0.0000000000000000000 ) ) ;
#55 = AXIS2_PLACEMENT_3D ( 'NONE', #337, #487, #748 ) ;
#56 = VERTEX_POINT ( 'NONE', #374 ) ;
#57 = PLANE ( 'NONE',  #717 ) ;
#58 = CARTESIAN_POINT ( 'NONE',  ( 0.3300000000000001266, 0.5000000000000000000, 0.2499999999999998890 ) ) ;
#59 = FACE_OUTER_BOUND ( 'NONE', #445, .T. ) ;
#60 = COLOUR_RGB ( '',0.7921568627450980005, 0.8196078431372548767, 0.9333333333333333481 ) ;
#61 = DIRECTION ( 'NONE',  ( 0.0000000000000000000, 1.000000000000000000, 0.0000000000000000000 ) ) ;
#62 = ORIENTED_EDGE ( 'NONE', *, *, #705, .T. ) ;
#63 = EDGE_CURVE ( 'NONE', #535, #160, #915, .T. ) ;
#64 = DIRECTION ( 'NONE',  ( -0.0000000000000000000, -1.000000000000000000, -0.0000000000000000000 ) ) ;
#65 = DIRECTION ( 'NONE',  ( 1.000000000000000000, -0.0000000000000000000, -1.084202172485504434E-16 ) ) ;
#66 = FACE_OUTER_BOUND ( 'NONE', #392, .T. ) ;
#67 = DIRECTION ( 'NONE',  ( 1.084202172485504434E-16, -0.0000000000000000000, 1.000000000000000000 ) ) ;
#68 = ORIENTED_EDGE ( 'NONE', *, *, #74, .F. ) ;
#69 = DIRECTION ( 'NONE',  ( 1.000000000000000000, -0.0000000000000000000, 0.0000000000000000000 ) ) ;
#70 =( GEOMETRIC_REPRESENTATION_CONTEXT ( 3 ) GLOBAL_UNCERTAINTY_ASSIGNED_CONTEXT ( ( #89 ) ) GLOBAL_UNIT_ASSIGNED_CONTEXT ( ( #670, #479, #166 ) ) REPRESENTATION_CONTEXT ( 'NONE', 'WORKASPACE' ) );
#71 = ORIENTED_EDGE ( 'NONE', *, *, #431, .T. ) ;
#72 = CYLINDRICAL_SURFACE ( 'NONE', #291, 0.1770833333333333426 ) ;
#73 = DIRECTION ( 'NONE',  ( 1.000000000000000000, -0.0000000000000000000, -1.084202172485504434E-16 ) ) ;
#74 = EDGE_CURVE ( 'NONE', #726, #876, #728, .T. ) ;
#75 = VECTOR ( 'NONE', #913, 1000.000000000000000 ) ;
#76 = EDGE_CURVE ( 'NONE', #370, #278, #86, .T. ) ;
#77 = LINE ( 'NONE', #194, #509 ) ;
#78 = VECTOR ( 'NONE', #611, 1000.000000000000000 ) ;
#79 = ADVANCED_FACE ( 'NONE', ( #59 ), #72, .F. ) ;
#80 = ORIENTED_EDGE ( 'NONE', *, *, #577, .F. ) ;
#81 = LINE ( 'NONE', #419, #178 ) ;
#82 = AXIS2_PLACEMENT_3D ( 'NONE', #606, #664, #109 ) ;
#83 = ORIENTED_EDGE ( 'NONE', *, *, #176, .F. ) ;
#84 = EDGE_CURVE ( 'NONE', #583, #880, #834, .T. ) ;
#85 = ORIENTED_EDGE ( 'NONE', *, *, #480, .F. ) ;
#86 = LINE ( 'NONE', #87, #104 ) ;
#87 = CARTESIAN_POINT ( 'NONE',  ( -1.355252715606880543E-17, 0.0000000000000000000, -0.1000000000000000194 ) ) ;
#88 = LINE ( 'NONE', #565, #245 ) ;
#89 = UNCERTAINTY_MEASURE_WITH_UNIT (LENGTH_MEASURE( 1.000000000000000082E-05 ), #670, 'distance_accuracy_value', 'NONE');
#90 = ADVANCED_FACE ( 'NONE', ( #443 ), #723, .F. ) ;
#91 = DIRECTION ( 'NONE',  ( 0.0000000000000000000, 1.000000000000000000, 0.0000000000000000000 ) ) ;
#92 = LINE ( 'NONE', #896, #29 ) ;
#93 = STYLED_ITEM ( 'NONE', ( #388 ), #892 ) ;
#94 = ORIENTED_EDGE ( 'NONE', *, *, #111, .T. ) ;
#95 = EDGE_CURVE ( 'NONE', #252, #535, #711, .T. ) ;
#96 = CARTESIAN_POINT ( 'NONE',  ( 0.4999999999999998890, 0.5000000000000000000, -0.2500000000000001110 ) ) ;
#97 = LINE ( 'NONE', #545, #274 ) ;
#98 = ADVANCED_FACE ( 'NONE', ( #333 ), #628, .F. ) ;
#99 = DIRECTION ( 'NONE',  ( -1.000000000000000000, 0.0000000000000000000, 1.084202172485504434E-16 ) ) ;
#100 = ORIENTED_EDGE ( 'NONE', *, *, #399, .F. ) ;
#101 = EDGE_LOOP ( 'NONE', ( #164, #916, #131, #158 ) ) ;
#102 = CARTESIAN_POINT ( 'NONE',  ( 0.4999999999999998890, 0.5000000000000000000, 0.2499999999999998890 ) ) ;
#103 = SURFACE_STYLE_USAGE ( .BOTH. , #412 ) ;
#104 = VECTOR ( 'NONE', #386, 1000.000000000000000 ) ;
#105 =( NAMED_UNIT ( * ) PLANE_ANGLE_UNIT ( ) SI_UNIT ( $, .RADIAN. ) );
#106 = ORIENTED_EDGE ( 'NONE', *, *, #688, .F. ) ;
#107 = DIRECTION ( 'NONE',  ( 8.881784197001252323E-16, 0.0000000000000000000, 1.000000000000000000 ) ) ;
#108 = LINE ( 'NONE', #217, #649 ) ;
#109 = DIRECTION ( 'NONE',  ( 0.0000000000000000000, 0.0000000000000000000, 1.000000000000000000 ) ) ;
#110 = LINE ( 'NONE', #447, #458 ) ;
#111 = EDGE_CURVE ( 'NONE', #672, #737, #502, .T. ) ;
#112 = CARTESIAN_POINT ( 'NONE',  ( -0.3300000000000001266, 0.0000000000000000000, 0.2500000000000000000 ) ) ;
#113 = CARTESIAN_POINT ( 'NONE',  ( 0.3300000000000001266, 0.0000000000000000000, 0.2500000000000000000 ) ) ;
#114 = CARTESIAN_POINT ( 'NONE',  ( -1.355252715606880543E-17, 0.5000000000000000000, 0.2770833333333334036 ) ) ;
#115 = EDGE_CURVE ( 'NONE', #939, #397, #221, .T. ) ;
#116 = ORIENTED_EDGE ( 'NONE', *, *, #780, .T. ) ;
#117 = VECTOR ( 'NONE', #938, 1000.000000000000000 ) ;
#118 = CARTESIAN_POINT ( 'NONE',  ( -0.3300000000000001266, 0.5000000000000000000, 0.0000000000000000000 ) ) ;
#119 = DIRECTION ( 'NONE',  ( -1.084202172485504434E-16, 0.0000000000000000000, -1.000000000000000000 ) ) ;
#120 = ORIENTED_EDGE ( 'NONE', *, *, #84, .T. ) ;
#121 = SURFACE_STYLE_USAGE ( .BOTH. , #568 ) ;
#122 =( LENGTH_UNIT ( ) NAMED_UNIT ( * ) SI_UNIT ( .MILLI., .METRE. ) );
#123 = CIRCLE ( 'NONE', #743, 0.1770833333333333426 ) ;
#124 = DIRECTION ( 'NONE',  ( 0.0000000000000000000, -0.0000000000000000000, 1.000000000000000000 ) ) ;
#125 = CARTESIAN_POINT ( 'NONE',  ( -0.1750000000000000444, 0.5000000000000000000, -0.2500000000000000555 ) ) ;
#126 = ORIENTED_EDGE ( 'NONE', *, *, #647, .T. ) ;
#127 = ORIENTED_EDGE ( 'NONE', *, *, #803, .T. ) ;
#128 = ORIENTED_EDGE ( 'NONE', *, *, #225, .F. ) ;
#129 = CARTESIAN_POINT ( 'NONE',  ( -0.1750000000000000167, 0.5000000000000000000, 0.2499999999999999445 ) ) ;
#130 = STYLED_ITEM ( 'NONE', ( #132 ), #260 ) ;
#131 = ORIENTED_EDGE ( 'NONE', *, *, #581, .T. ) ;
#132 = PRESENTATION_STYLE_ASSIGNMENT (( #121 ) ) ;
#133 = ORIENTED_EDGE ( 'NONE', *, *, #41, .F. ) ;
#134 = VERTEX_POINT ( 'NONE', #396 ) ;
#135 = EDGE_CURVE ( 'NONE', #385, #1, #47, .T. ) ;
#136 = CARTESIAN_POINT ( 'NONE',  ( 0.3300000000000001266, 0.5000000000000000000, -0.2500000000000001110 ) ) ;
#137 = CARTESIAN_POINT ( 'NONE',  ( 0.3300000000000001266, 0.0000000000000000000, -0.2500000000000001110 ) ) ;
#138 = VECTOR ( 'NONE', #210, 1000.000000000000000 ) ;
#139 = EDGE_LOOP ( 'NONE', ( #700, #531, #68, #687 ) ) ;
#140 = CARTESIAN_POINT ( 'NONE',  ( -0.1750000000000000167, 0.0000000000000000000, 0.2499999999999999445 ) ) ;
#141 = ORIENTED_EDGE ( 'NONE', *, *, #20, .F. ) ;
#142 = EDGE_LOOP ( 'NONE', ( #776, #718, #331, #551 ) ) ;
#143 = PRESENTATION_STYLE_ASSIGNMENT (( #327 ) ) ;
#144 = ORIENTED_EDGE ( 'NONE', *, *, #135, .T. ) ;
#145 =( GEOMETRIC_REPRESENTATION_CONTEXT ( 3 ) GLOBAL_UNCERTAINTY_ASSIGNED_CONTEXT ( ( #868 ) ) GLOBAL_UNIT_ASSIGNED_CONTEXT ( ( #51, #788, #424 ) ) REPRESENTATION_CONTEXT ( 'NONE', 'WORKASPACE' ) );
#146 = AXIS2_PLACEMENT_3D ( 'NONE', #627, #69, #640 ) ;
#147 = VECTOR ( 'NONE', #32, 1000.000000000000000 ) ;
#148 = ORIENTED_EDGE ( 'NONE', *, *, #722, .F. ) ;
#149 = EDGE_CURVE ( 'NONE', #876, #56, #183, .T. ) ;
#150 = VERTEX_POINT ( 'NONE', #738 ) ;
#151 = EDGE_LOOP ( 'NONE', ( #887, #133, #215, #62 ) ) ;
#152 = ORIENTED_EDGE ( 'NONE', *, *, #216, .F. ) ;
#153 = AXIS2_PLACEMENT_3D ( 'NONE', #262, #759, #843 ) ;
#154 = CARTESIAN_POINT ( 'NONE',  ( -0.1750000000000000167, 0.0000000000000000000, 0.2499999999999999445 ) ) ;
#155 = DIRECTION ( 'NONE',  ( -1.000000000000000000, 0.0000000000000000000, 1.084202172485504434E-16 ) ) ;
#156 = LINE ( 'NONE', #322, #906 ) ;
#157 = LINE ( 'NONE', #400, #147 ) ;
#158 = ORIENTED_EDGE ( 'NONE', *, *, #498, .T. ) ;
#159 = EDGE_CURVE ( 'NONE', #768, #252, #19, .T. ) ;
#160 = VERTEX_POINT ( 'NONE', #543 ) ;
#161 = MECHANICAL_DESIGN_GEOMETRIC_PRESENTATION_REPRESENTATION (  '', ( #417 ), #474 ) ;
#162 = ADVANCED_FACE ( 'NONE', ( #489 ), #745, .F. ) ;
#163 = EDGE_CURVE ( 'NONE', #4, #681, #437, .T. ) ;
#164 = ORIENTED_EDGE ( 'NONE', *, *, #111, .F. ) ;
#165 = CARTESIAN_POINT ( 'NONE',  ( -0.1750000000000000444, 0.0000000000000000000, -0.2500000000000000555 ) ) ;
#166 =( NAMED_UNIT ( * ) SI_UNIT ( $, .STERADIAN. ) SOLID_ANGLE_UNIT ( ) );
#167 = ORIENTED_EDGE ( 'NONE', *, *, #523, .T. ) ;
#168 = CIRCLE ( 'NONE', #409, 0.1770833333333333703 ) ;
#169 = SURFACE_STYLE_FILL_AREA ( #794 ) ;
#170 = ORIENTED_EDGE ( 'NONE', *, *, #201, .T. ) ;
#171 = FILL_AREA_STYLE ('',( #393 ) ) ;
#172 = AXIS2_PLACEMENT_3D ( 'NONE', #452, #14, #16 ) ;
#173 = DIRECTION ( 'NONE',  ( 8.881784197001252323E-16, 0.0000000000000000000, 1.000000000000000000 ) ) ;
#174 = CARTESIAN_POINT ( 'NONE',  ( 0.3300000000000001266, 0.5000000000000000000, -0.2500000000000001110 ) ) ;
#175 = DIRECTION ( 'NONE',  ( 1.000000000000000000, 0.0000000000000000000, -1.084202172485504434E-16 ) ) ;
#176 = EDGE_CURVE ( 'NONE', #512, #454, #92, .T. ) ;
#177 = CARTESIAN_POINT ( 'NONE',  ( -1.355252715606880543E-17, 0.0000000000000000000, -0.2770833333333334036 ) ) ;
#178 = VECTOR ( 'NONE', #64, 1000.000000000000000 ) ;
#179 = CARTESIAN_POINT ( 'NONE',  ( 0.0000000000000000000, 0.5000000000000000000, 0.0000000000000000000 ) ) ;
#180 = ORIENTED_EDGE ( 'NONE', *, *, #617, .T. ) ;
#181 = FILL_AREA_STYLE ('',( #622 ) ) ;
#182 = PLANE ( 'NONE',  #598 ) ;
#183 = LINE ( 'NONE', #730, #646 ) ;
#184 = FILL_AREA_STYLE ('',( #554 ) ) ;
#185 = ORIENTED_EDGE ( 'NONE', *, *, #225, .T. ) ;
#186 =( NAMED_UNIT ( * ) PLANE_ANGLE_UNIT ( ) SI_UNIT ( $, .RADIAN. ) );
#187 = FILL_AREA_STYLE_COLOUR ( '', #60 ) ;
#188 = SURFACE_STYLE_FILL_AREA ( #184 ) ;
#189 = CARTESIAN_POINT ( 'NONE',  ( 0.4999999999999998890, 0.0000000000000000000, -0.2500000000000001110 ) ) ;
#190 = DIRECTION ( 'NONE',  ( -1.000000000000000000, 0.0000000000000000000, 1.084202172485504434E-16 ) ) ;
#191 = VECTOR ( 'NONE', #338, 1000.000000000000000 ) ;
#192 = DIRECTION ( 'NONE',  ( 0.0000000000000000000, 1.000000000000000000, 0.0000000000000000000 ) ) ;
#193 = ORIENTED_EDGE ( 'NONE', *, *, #229, .T. ) ;
#194 = CARTESIAN_POINT ( 'NONE',  ( 0.4999999999999998890, 0.0000000000000000000, -0.2500000000000001110 ) ) ;
#195 = DIRECTION ( 'NONE',  ( -0.0000000000000000000, -1.000000000000000000, -0.0000000000000000000 ) ) ;
#196 =( NAMED_UNIT ( * ) SI_UNIT ( $, .STERADIAN. ) SOLID_ANGLE_UNIT ( ) );
#197 = CARTESIAN_POINT ( 'NONE',  ( -0.1750000000000000444, 0.0000000000000000000, -0.2500000000000000555 ) ) ;
#198 = DIRECTION ( 'NONE',  ( 1.000000000000000000, 0.0000000000000000000, -1.084202172485504434E-16 ) ) ;
#199 = EDGE_LOOP ( 'NONE', ( #810, #871, #378, #120 ) ) ;
#200 = CARTESIAN_POINT ( 'NONE',  ( 0.0000000000000000000, 0.0000000000000000000, 0.0000000000000000000 ) ) ;
#201 = EDGE_CURVE ( 'NONE', #453, #563, #888, .T. ) ;
#202 = DIRECTION ( 'NONE',  ( -0.0000000000000000000, -0.0000000000000000000, 1.000000000000000000 ) ) ;
#203 = EDGE_LOOP ( 'NONE', ( #94, #298, #438, #786 ) ) ;
#204 = CARTESIAN_POINT ( 'NONE',  ( 0.1750000000000000444, 0.0000000000000000000, -0.2500000000000000555 ) ) ;
#205 = DIRECTION ( 'NONE',  ( 1.000000000000000000, -0.0000000000000000000, 0.0000000000000000000 ) ) ;
#206 = LINE ( 'NONE', #894, #574 ) ;
#207 = APPLICATION_CONTEXT ( 'automotive_design' ) ;
#208 = MECHANICAL_DESIGN_GEOMETRIC_PRESENTATION_REPRESENTATION (  '', ( #426 ), #493 ) ;
#209 = ADVANCED_FACE ( 'NONE', ( #596 ), #30, .F. ) ;
#210 = DIRECTION ( 'NONE',  ( -0.0000000000000000000, -1.000000000000000000, -0.0000000000000000000 ) ) ;
#211 = VERTEX_POINT ( 'NONE', #667 ) ;
#212 = EDGE_LOOP ( 'NONE', ( #645, #536 ) ) ;
#213 = DIRECTION ( 'NONE',  ( 0.0000000000000000000, 1.000000000000000000, 0.0000000000000000000 ) ) ;
#214 = VECTOR ( 'NONE', #99, 1000.000000000000000 ) ;
#215 = ORIENTED_EDGE ( 'NONE', *, *, #149, .T. ) ;
#216 = EDGE_CURVE ( 'NONE', #315, #939, #527, .T. ) ;
#217 = CARTESIAN_POINT ( 'NONE',  ( 0.4999999999999998890, 0.0000000000000000000, 0.2499999999999998890 ) ) ;
#218 = ADVANCED_FACE ( 'NONE', ( #582 ), #652, .T. ) ;
#219 = STYLED_ITEM ( 'NONE', ( #26 ), #367 ) ;
#220 = ORIENTED_EDGE ( 'NONE', *, *, #308, .T. ) ;
#221 = LINE ( 'NONE', #154, #616 ) ;
#222 = ORIENTED_EDGE ( 'NONE', *, *, #244, .T. ) ;
#223 = PRESENTATION_LAYER_ASSIGNMENT (  '', '', ( #513 ) ) ;
#224 = DIRECTION ( 'NONE',  ( 1.000000000000000000, -0.0000000000000000000, 0.0000000000000000000 ) ) ;
#225 = EDGE_CURVE ( 'NONE', #768, #500, #420, .T. ) ;
#226 = LINE ( 'NONE', #269, #440 ) ;
#227 = VECTOR ( 'NONE', #874, 1000.000000000000000 ) ;
#228 = DIRECTION ( 'NONE',  ( 0.0000000000000000000, 1.000000000000000000, 0.0000000000000000000 ) ) ;
#229 = EDGE_CURVE ( 'NONE', #614, #4, #870, .T. ) ;
#230 = FILL_AREA_STYLE_COLOUR ( '', #657 ) ;
#231 = CARTESIAN_POINT ( 'NONE',  ( -1.355252715606880543E-17, 0.0000000000000000000, -0.2770833333333334036 ) ) ;
#232 = ORIENTED_EDGE ( 'NONE', *, *, #760, .F. ) ;
#233 = LINE ( 'NONE', #189, #820 ) ;
#234 = FILL_AREA_STYLE ('',( #230 ) ) ;
#235 = ADVANCED_FACE ( 'NONE', ( #791 ), #770, .F. ) ;
#236 = CARTESIAN_POINT ( 'NONE',  ( -1.355252715606880543E-17, 0.0000000000000000000, 0.2770833333333334036 ) ) ;
#237 = LINE ( 'NONE', #556, #838 ) ;
#238 = SURFACE_STYLE_FILL_AREA ( #171 ) ;
#239 = CARTESIAN_POINT ( 'NONE',  ( 0.0000000000000000000, 0.5000000000000000000, 0.0000000000000000000 ) ) ;
#240 = PRESENTATION_LAYER_ASSIGNMENT (  '', '', ( #417 ) ) ;
#241 = ORIENTED_EDGE ( 'NONE', *, *, #705, .F. ) ;
#242 = DIRECTION ( 'NONE',  ( -1.084202172485504434E-16, 0.0000000000000000000, -1.000000000000000000 ) ) ;
#243 = CARTESIAN_POINT ( 'NONE',  ( 0.0000000000000000000, 0.0000000000000000000, 0.0000000000000000000 ) ) ;
#244 = EDGE_CURVE ( 'NONE', #541, #453, #518, .T. ) ;
#245 = VECTOR ( 'NONE', #202, 1000.000000000000000 ) ;
#246 = DIRECTION ( 'NONE',  ( 0.0000000000000000000, 0.0000000000000000000, 1.000000000000000000 ) ) ;
#247 = CARTESIAN_POINT ( 'NONE',  ( 0.4999999999999998890, 0.5000000000000000000, -0.2500000000000001110 ) ) ;
#248 = ADVANCED_FACE ( 'NONE', ( #8 ), #282, .F. ) ;
#249 = EDGE_LOOP ( 'NONE', ( #674, #106, #898, #144 ) ) ;
#250 = PLANE ( 'NONE',  #325 ) ;
#251 = DIRECTION ( 'NONE',  ( 0.0000000000000000000, 1.000000000000000000, 0.0000000000000000000 ) ) ;
#252 = VERTEX_POINT ( 'NONE', #197 ) ;
#253 = CARTESIAN_POINT ( 'NONE',  ( -1.355252715606880543E-17, 0.0000000000000000000, -0.2770833333333334036 ) ) ;
#254 = DIRECTION ( 'NONE',  ( 1.000000000000000000, 0.0000000000000000000, -1.084202172485504434E-16 ) ) ;
#255 = DIRECTION ( 'NONE',  ( 8.881784197001252323E-16, 0.0000000000000000000, 1.000000000000000000 ) ) ;
#256 = CARTESIAN_POINT ( 'NONE',  ( 0.0000000000000000000, 0.5000000000000000000, 0.0000000000000000000 ) ) ;
#257 = EDGE_CURVE ( 'NONE', #563, #278, #538, .T. ) ;
#258 = CARTESIAN_POINT ( 'NONE',  ( -0.5000000000000001110, 0.5000000000000000000, 0.2500000000000000000 ) ) ;
#259 = CIRCLE ( 'NONE', #13, 0.1770833333333333426 ) ;
#260 = MANIFOLD_SOLID_BREP ( 'Split1[1]', #313 ) ;
#261 = LINE ( 'NONE', #532, #715 ) ;
#262 = CARTESIAN_POINT ( 'NONE',  ( 0.3300000000000001266, 0.0000000000000000000, 0.2500000000000000000 ) ) ;
#263 = PRESENTATION_LAYER_ASSIGNMENT (  '', '', ( #219 ) ) ;
#264 = DIRECTION ( 'NONE',  ( -1.000000000000000000, 0.0000000000000000000, 1.084202172485504434E-16 ) ) ;
#265 = EDGE_CURVE ( 'NONE', #726, #150, #806, .T. ) ;
#266 = CARTESIAN_POINT ( 'NONE',  ( 0.4999999999999998890, 0.5000000000000000000, 0.2499999999999998890 ) ) ;
#267 = CYLINDRICAL_SURFACE ( 'NONE', #483, 0.1770833333333333703 ) ;
#268 = SURFACE_STYLE_USAGE ( .BOTH. , #680 ) ;
#269 = CARTESIAN_POINT ( 'NONE',  ( 0.4999999999999998890, 0.0000000000000000000, 0.2499999999999998890 ) ) ;
#270 = DIRECTION ( 'NONE',  ( 1.000000000000000000, 0.0000000000000000000, -1.084202172485504434E-16 ) ) ;
#271 =( NAMED_UNIT ( * ) PLANE_ANGLE_UNIT ( ) SI_UNIT ( $, .RADIAN. ) );
#272 = DIRECTION ( 'NONE',  ( -1.000000000000000000, 0.0000000000000000000, 0.0000000000000000000 ) ) ;
#273 = CARTESIAN_POINT ( 'NONE',  ( -0.1750000000000000444, 0.0000000000000000000, -0.2500000000000000555 ) ) ;
#274 = VECTOR ( 'NONE', #264, 1000.000000000000000 ) ;
#275 = AXIS2_PLACEMENT_3D ( 'NONE', #247, #39, #175 ) ;
#276 = AXIS2_PLACEMENT_3D ( 'NONE', #401, #17, #547 ) ;
#277 = PRODUCT_DEFINITION_CONTEXT ( 'detailed design', #848, 'design' ) ;
#278 = VERTEX_POINT ( 'NONE', #497 ) ;
#279 = SHAPE_DEFINITION_REPRESENTATION ( #855, #683 ) ;
#280 = EDGE_CURVE ( 'NONE', #588, #789, #677, .T. ) ;
#281 = DIRECTION ( 'NONE',  ( 0.0000000000000000000, -0.0000000000000000000, 1.000000000000000000 ) ) ;
#282 = PLANE ( 'NONE',  #318 ) ;
#283 = DIRECTION ( 'NONE',  ( 1.000000000000000000, -0.0000000000000000000, -1.084202172485504434E-16 ) ) ;
#284 = DIRECTION ( 'NONE',  ( 1.000000000000000000, 0.0000000000000000000, 0.0000000000000000000 ) ) ;
#285 = LINE ( 'NONE', #845, #75 ) ;
#286 = VECTOR ( 'NONE', #564, 1000.000000000000000 ) ;
#287 = CIRCLE ( 'NONE', #826, 0.1770833333333333426 ) ;
#288 = UNCERTAINTY_MEASURE_WITH_UNIT (LENGTH_MEASURE( 1.000000000000000082E-05 ), #779, 'distance_accuracy_value', 'NONE');
#289 = ORIENTED_EDGE ( 'NONE', *, *, #523, .F. ) ;
#290 = MECHANICAL_DESIGN_GEOMETRIC_PRESENTATION_REPRESENTATION (  '', ( #513 ), #70 ) ;
#291 = AXIS2_PLACEMENT_3D ( 'NONE', #236, #91, #877 ) ;
#292 = CARTESIAN_POINT ( 'NONE',  ( 0.1750000000000000444, 0.0000000000000000000, -0.2500000000000000555 ) ) ;
#293 = FACE_OUTER_BOUND ( 'NONE', #151, .T. ) ;
#294 = CARTESIAN_POINT ( 'NONE',  ( 0.4999999999999998890, 0.5000000000000000000, 0.2499999999999998890 ) ) ;
#295 = EDGE_CURVE ( 'NONE', #789, #737, #840, .T. ) ;
#296 = DIRECTION ( 'NONE',  ( 0.0000000000000000000, 0.0000000000000000000, 1.000000000000000000 ) ) ;
#297 = EDGE_LOOP ( 'NONE', ( #553, #22, #116, #897 ) ) ;
#298 = ORIENTED_EDGE ( 'NONE', *, *, #295, .F. ) ;
#299 = DIRECTION ( 'NONE',  ( 0.0000000000000000000, 0.0000000000000000000, -1.000000000000000000 ) ) ;
#300 = CLOSED_SHELL ( 'NONE', ( #387, #900, #534, #162 ) ) ;
#301 = CARTESIAN_POINT ( 'NONE',  ( 0.4999999999999998890, 0.5000000000000000000, 0.2499999999999998890 ) ) ;
#302 = VECTOR ( 'NONE', #326, 1000.000000000000000 ) ;
#303 = SURFACE_STYLE_FILL_AREA ( #234 ) ;
#304 = EDGE_CURVE ( 'NONE', #1, #588, #548, .T. ) ;
#305 = EDGE_CURVE ( 'NONE', #712, #411, #77, .T. ) ;
#306 = FACE_OUTER_BOUND ( 'NONE', #346, .T. ) ;
#307 = ORIENTED_EDGE ( 'NONE', *, *, #653, .T. ) ;
#308 = EDGE_CURVE ( 'NONE', #563, #671, #389, .T. ) ;
#309 = DIRECTION ( 'NONE',  ( 0.0000000000000000000, 0.0000000000000000000, 1.000000000000000000 ) ) ;
#310 = ADVANCED_FACE ( 'NONE', ( #893 ), #690, .F. ) ;
#311 = FACE_OUTER_BOUND ( 'NONE', #804, .T. ) ;
#312 = ORIENTED_EDGE ( 'NONE', *, *, #480, .T. ) ;
#313 = CLOSED_SHELL ( 'NONE', ( #43, #511, #831, #799, #714, #816 ) ) ;
#314 = ADVANCED_FACE ( 'NONE', ( #2 ), #491, .F. ) ;
#315 = VERTEX_POINT ( 'NONE', #749 ) ;
#316 = CARTESIAN_POINT ( 'NONE',  ( -0.3300000000000001266, 0.5000000000000000000, -0.2500000000000000000 ) ) ;
#317 = ORIENTED_EDGE ( 'NONE', *, *, #6, .F. ) ;
#318 = AXIS2_PLACEMENT_3D ( 'NONE', #632, #67, #270 ) ;
#319 = DIRECTION ( 'NONE',  ( -0.0000000000000000000, -1.000000000000000000, -0.0000000000000000000 ) ) ;
#320 = CARTESIAN_POINT ( 'NONE',  ( 0.0000000000000000000, 0.0000000000000000000, 0.0000000000000000000 ) ) ;
#321 = EDGE_CURVE ( 'NONE', #939, #517, #530, .T. ) ;
#322 = CARTESIAN_POINT ( 'NONE',  ( 0.1750000000000000444, 0.0000000000000000000, -0.2500000000000000555 ) ) ;
#323 = FACE_OUTER_BOUND ( 'NONE', #139, .T. ) ;
#324 = CARTESIAN_POINT ( 'NONE',  ( -0.3300000000000001266, 0.5000000000000000000, -0.2500000000000000000 ) ) ;
#325 = AXIS2_PLACEMENT_3D ( 'NONE', #243, #739, #836 ) ;
#326 = DIRECTION ( 'NONE',  ( 0.0000000000000000000, -1.000000000000000000, 0.0000000000000000000 ) ) ;
#327 = SURFACE_STYLE_USAGE ( .BOTH. , #756 ) ;
#328 = DIRECTION ( 'NONE',  ( 0.0000000000000000000, 1.000000000000000000, 0.0000000000000000000 ) ) ;
#329 = DIRECTION ( 'NONE',  ( -1.000000000000000000, 0.0000000000000000000, 1.084202172485504434E-16 ) ) ;
#330 = CARTESIAN_POINT ( 'NONE',  ( 0.4999999999999998890, 0.5000000000000000000, -0.2500000000000001110 ) ) ;
#331 = ORIENTED_EDGE ( 'NONE', *, *, #308, .F. ) ;
#332 = ORIENTED_EDGE ( 'NONE', *, *, #464, .T. ) ;
#333 = FACE_OUTER_BOUND ( 'NONE', #769, .T. ) ;
#334 = CARTESIAN_POINT ( 'NONE',  ( -0.3300000000000001266, 0.5000000000000000000, -0.2500000000000000000 ) ) ;
#335 = DIRECTION ( 'NONE',  ( 0.0000000000000000000, 0.0000000000000000000, 1.000000000000000000 ) ) ;
#336 = VERTEX_POINT ( 'NONE', #334 ) ;
#337 = CARTESIAN_POINT ( 'NONE',  ( 0.0000000000000000000, 0.0000000000000000000, 0.0000000000000000000 ) ) ;
#338 = DIRECTION ( 'NONE',  ( 0.0000000000000000000, 0.0000000000000000000, -1.000000000000000000 ) ) ;
#339 = DIRECTION ( 'NONE',  ( 1.000000000000000000, -0.0000000000000000000, -1.084202172485504434E-16 ) ) ;
#340 = CARTESIAN_POINT ( 'NONE',  ( 0.3300000000000001266, 0.5000000000000000000, 0.2499999999999998890 ) ) ;
#341 = AXIS2_PLACEMENT_3D ( 'NONE', #642, #510, #637 ) ;
#342 = CARTESIAN_POINT ( 'NONE',  ( 0.3300000000000001266, 0.0000000000000000000, 0.0000000000000000000 ) ) ;
#343 = AXIS2_PLACEMENT_3D ( 'NONE', #436, #192, #425 ) ;
#344 = ORIENTED_EDGE ( 'NONE', *, *, #63, .F. ) ;
#345 = CARTESIAN_POINT ( 'NONE',  ( 0.4999999999999998890, 0.0000000000000000000, 0.2499999999999998890 ) ) ;
#346 = EDGE_LOOP ( 'NONE', ( #317, #793, #365, #312 ) ) ;
#347 = PLANE ( 'NONE',  #153 ) ;
#348 = LINE ( 'NONE', #50, #580 ) ;
#349 = SURFACE_STYLE_FILL_AREA ( #849 ) ;
#350 =( NAMED_UNIT ( * ) PLANE_ANGLE_UNIT ( ) SI_UNIT ( $, .RADIAN. ) );
#351 = ORIENTED_EDGE ( 'NONE', *, *, #561, .F. ) ;
#352 = ORIENTED_EDGE ( 'NONE', *, *, #418, .F. ) ;
#353 = CARTESIAN_POINT ( 'NONE',  ( -0.5000000000000001110, 0.5000000000000000000, -0.2500000000000000000 ) ) ;
#354 = PLANE ( 'NONE',  #455 ) ;
#355 = FACE_OUTER_BOUND ( 'NONE', #212, .T. ) ;
#356 = CARTESIAN_POINT ( 'NONE',  ( -0.5000000000000001110, 0.5000000000000000000, -0.2500000000000000000 ) ) ;
#357 = VECTOR ( 'NONE', #155, 1000.000000000000000 ) ;
#358 = AXIS2_PLACEMENT_3D ( 'NONE', #179, #414, #909 ) ;
#359 = ORIENTED_EDGE ( 'NONE', *, *, #159, .T. ) ;
#360 = CARTESIAN_POINT ( 'NONE',  ( 0.1749999999999999611, 0.0000000000000000000, 0.2499999999999999445 ) ) ;
#361 = ADVANCED_FACE ( 'NONE', ( #921 ), #57, .F. ) ;
#362 = ORIENTED_EDGE ( 'NONE', *, *, #850, .F. ) ;
#363 = VECTOR ( 'NONE', #885, 1000.000000000000000 ) ;
#364 = CARTESIAN_POINT ( 'NONE',  ( 0.3300000000000001266, 0.5000000000000000000, -0.2500000000000001110 ) ) ;
#365 = ORIENTED_EDGE ( 'NONE', *, *, #176, .T. ) ;
#366 = MECHANICAL_DESIGN_GEOMETRIC_PRESENTATION_REPRESENTATION (  '', ( #130 ), #446 ) ;
#367 = MANIFOLD_SOLID_BREP ( 'Split1[2]', #300 ) ;
#368 = EDGE_CURVE ( 'NONE', #422, #512, #157, .T. ) ;
#369 = CIRCLE ( 'NONE', #778, 0.1770833333333333703 ) ;
#370 = VERTEX_POINT ( 'NONE', #934 ) ;
#371 = ORIENTED_EDGE ( 'NONE', *, *, #780, .F. ) ;
#372 = EDGE_LOOP ( 'NONE', ( #812, #18, #71, #362 ) ) ;
#373 = AXIS2_PLACEMENT_3D ( 'NONE', #503, #205, #706 ) ;
#374 = CARTESIAN_POINT ( 'NONE',  ( -0.5000000000000001110, 0.0000000000000000000, 0.2500000000000000000 ) ) ;
#375 = DIRECTION ( 'NONE',  ( 0.0000000000000000000, -0.0000000000000000000, 1.000000000000000000 ) ) ;
#376 = FACE_OUTER_BOUND ( 'NONE', #31, .T. ) ;
#377 = EDGE_CURVE ( 'NONE', #768, #160, #369, .T. ) ;
#378 = ORIENTED_EDGE ( 'NONE', *, *, #561, .T. ) ;
#379 = PRODUCT ( 'NFM15PC104D0J3', 'NFM15PC104D0J3', '', ( #567 ) ) ;
#380 = DIRECTION ( 'NONE',  ( 0.0000000000000000000, 0.0000000000000000000, 1.000000000000000000 ) ) ;
#381 = EDGE_CURVE ( 'NONE', #712, #4, #110, .T. ) ;
#382 = ORIENTED_EDGE ( 'NONE', *, *, #115, .T. ) ;
#383 = ORIENTED_EDGE ( 'NONE', *, *, #20, .T. ) ;
#384 = PLANE ( 'NONE',  #891 ) ;
#385 = VERTEX_POINT ( 'NONE', #15 ) ;
#386 = DIRECTION ( 'NONE',  ( 0.0000000000000000000, 1.000000000000000000, 0.0000000000000000000 ) ) ;
#387 = ADVANCED_FACE ( 'NONE', ( #817 ), #732, .T. ) ;
#388 = PRESENTATION_STYLE_ASSIGNMENT (( #268 ) ) ;
#389 = LINE ( 'NONE', #494, #286 ) ;
#390 = ORIENTED_EDGE ( 'NONE', *, *, #760, .T. ) ;
#391 = PRESENTATION_LAYER_ASSIGNMENT (  '', '', ( #426 ) ) ;
#392 = EDGE_LOOP ( 'NONE', ( #890, #524, #307, #757 ) ) ;
#393 = FILL_AREA_STYLE_COLOUR ( '', #933 ) ;
#394 = PRESENTATION_LAYER_ASSIGNMENT (  '', '', ( #130 ) ) ;
#395 = ORIENTED_EDGE ( 'NONE', *, *, #930, .T. ) ;
#396 = CARTESIAN_POINT ( 'NONE',  ( 0.1749999999999999611, 0.0000000000000000000, 0.2499999999999999445 ) ) ;
#397 = VERTEX_POINT ( 'NONE', #584 ) ;
#398 = PLANE ( 'NONE',  #555 ) ;
#399 = EDGE_CURVE ( 'NONE', #315, #500, #623, .T. ) ;
#400 = CARTESIAN_POINT ( 'NONE',  ( -0.3300000000000001266, 0.5000000000000000000, 0.2500000000000000000 ) ) ;
#401 = CARTESIAN_POINT ( 'NONE',  ( -1.355252715606880543E-17, 0.5000000000000000000, -0.2770833333333334036 ) ) ;
#402 = DIRECTION ( 'NONE',  ( 0.0000000000000000000, -0.0000000000000000000, 1.000000000000000000 ) ) ;
#403 = CARTESIAN_POINT ( 'NONE',  ( -1.355252715606880543E-17, 0.0000000000000000000, 0.2770833333333334036 ) ) ;
#404 = DIRECTION ( 'NONE',  ( 1.000000000000000000, -0.0000000000000000000, -1.084202172485504434E-16 ) ) ;
#405 = LINE ( 'NONE', #767, #765 ) ;
#406 = VECTOR ( 'NONE', #750, 1000.000000000000000 ) ;
#407 = CARTESIAN_POINT ( 'NONE',  ( -0.3300000000000001266, 0.0000000000000000000, 0.2500000000000000000 ) ) ;
#408 = DIRECTION ( 'NONE',  ( -1.000000000000000000, 0.0000000000000000000, 1.084202172485504434E-16 ) ) ;
#409 = AXIS2_PLACEMENT_3D ( 'NONE', #685, #213, #639 ) ;
#410 = ORIENTED_EDGE ( 'NONE', *, *, #448, .F. ) ;
#411 = VERTEX_POINT ( 'NONE', #292 ) ;
#412 = SURFACE_SIDE_STYLE ('',( #238 ) ) ;
#413 = LINE ( 'NONE', #301, #940 ) ;
#414 = DIRECTION ( 'NONE',  ( 0.0000000000000000000, 1.000000000000000000, 0.0000000000000000000 ) ) ;
#415 = CARTESIAN_POINT ( 'NONE',  ( -1.355252715606880543E-17, 0.5000000000000000000, -0.2770833333333334036 ) ) ;
#416 = VECTOR ( 'NONE', #42, 1000.000000000000000 ) ;
#417 = STYLED_ITEM ( 'NONE', ( #143 ), #25 ) ;
#418 = EDGE_CURVE ( 'NONE', #315, #908, #40, .T. ) ;
#419 = CARTESIAN_POINT ( 'NONE',  ( 0.4999999999999998890, 0.5000000000000000000, -0.2500000000000001110 ) ) ;
#420 = LINE ( 'NONE', #504, #117 ) ;
#421 = ORIENTED_EDGE ( 'NONE', *, *, #418, .T. ) ;
#422 = VERTEX_POINT ( 'NONE', #521 ) ;
#423 = DIRECTION ( 'NONE',  ( 0.0000000000000000000, 1.000000000000000000, 0.0000000000000000000 ) ) ;
#424 =( NAMED_UNIT ( * ) SI_UNIT ( $, .STERADIAN. ) SOLID_ANGLE_UNIT ( ) );
#425 = DIRECTION ( 'NONE',  ( 0.0000000000000000000, 0.0000000000000000000, 1.000000000000000000 ) ) ;
#426 = STYLED_ITEM ( 'NONE', ( #879 ), #683 ) ;
#427 = FACE_OUTER_BOUND ( 'NONE', #603, .T. ) ;
#428 = PLANE ( 'NONE',  #341 ) ;
#429 = EDGE_LOOP ( 'NONE', ( #395, #721, #7, #220 ) ) ;
#430 = DIRECTION ( 'NONE',  ( 0.0000000000000000000, 0.0000000000000000000, 1.000000000000000000 ) ) ;
#431 = EDGE_CURVE ( 'NONE', #160, #681, #704, .T. ) ;
#432 = DIRECTION ( 'NONE',  ( 1.000000000000000000, -0.0000000000000000000, -1.084202172485504434E-16 ) ) ;
#433 = ORIENTED_EDGE ( 'NONE', *, *, #23, .F. ) ;
#434 = ORIENTED_EDGE ( 'NONE', *, *, #864, .T. ) ;
#435 = SURFACE_STYLE_USAGE ( .BOTH. , #863 ) ;
#436 = CARTESIAN_POINT ( 'NONE',  ( -1.355252715606880543E-17, 0.0000000000000000000, -0.2770833333333334036 ) ) ;
#437 = LINE ( 'NONE', #604, #214 ) ;
#438 = ORIENTED_EDGE ( 'NONE', *, *, #830, .F. ) ;
#439 = AXIS2_PLACEMENT_3D ( 'NONE', #829, #463, #27 ) ;
#440 = VECTOR ( 'NONE', #339, 1000.000000000000000 ) ;
#441 = ADVANCED_FACE ( 'NONE', ( #427 ), #591, .T. ) ;
#442 = FACE_OUTER_BOUND ( 'NONE', #901, .T. ) ;
#443 = FACE_OUTER_BOUND ( 'NONE', #801, .T. ) ;
#444 = AXIS2_PLACEMENT_3D ( 'NONE', #177, #251, #918 ) ;
#445 = EDGE_LOOP ( 'NONE', ( #9, #382, #167, #682 ) ) ;
#446 =( GEOMETRIC_REPRESENTATION_CONTEXT ( 3 ) GLOBAL_UNCERTAINTY_ASSIGNED_CONTEXT ( ( #288 ) ) GLOBAL_UNIT_ASSIGNED_CONTEXT ( ( #779, #350, #570 ) ) REPRESENTATION_CONTEXT ( 'NONE', 'WORKASPACE' ) );
#447 = CARTESIAN_POINT ( 'NONE',  ( 0.3300000000000001266, 0.5000000000000000000, -0.2500000000000001110 ) ) ;
#448 = EDGE_CURVE ( 'NONE', #541, #671, #261, .T. ) ;
#449 = LINE ( 'NONE', #475, #724 ) ;
#450 = DIRECTION ( 'NONE',  ( 0.0000000000000000000, 0.0000000000000000000, -1.000000000000000000 ) ) ;
#451 = ORIENTED_EDGE ( 'NONE', *, *, #867, .F. ) ;
#452 = CARTESIAN_POINT ( 'NONE',  ( -1.355252715606880543E-17, 0.0000000000000000000, -0.2770833333333334036 ) ) ;
#453 = VERTEX_POINT ( 'NONE', #539 ) ;
#454 = VERTEX_POINT ( 'NONE', #544 ) ;
#455 = AXIS2_PLACEMENT_3D ( 'NONE', #294, #490, #408 ) ;
#456 = DIRECTION ( 'NONE',  ( -0.0000000000000000000, -1.000000000000000000, -0.0000000000000000000 ) ) ;
#457 = VECTOR ( 'NONE', #283, 1000.000000000000000 ) ;
#458 = VECTOR ( 'NONE', #516, 1000.000000000000000 ) ;
#459 = CARTESIAN_POINT ( 'NONE',  ( 0.3300000000000001266, 0.5000000000000000000, 0.0000000000000000000 ) ) ;
#460 = EDGE_LOOP ( 'NONE', ( #699, #923, #754, #352 ) ) ;
#461 = DIRECTION ( 'NONE',  ( 1.084202172485504434E-16, -0.0000000000000000000, 1.000000000000000000 ) ) ;
#462 = ORIENTED_EDGE ( 'NONE', *, *, #830, .T. ) ;
#463 = DIRECTION ( 'NONE',  ( -1.084202172485504434E-16, 0.0000000000000000000, -1.000000000000000000 ) ) ;
#464 = EDGE_CURVE ( 'NONE', #535, #411, #747, .T. ) ;
#465 = ORIENTED_EDGE ( 'NONE', *, *, #163, .F. ) ;
#466 = ORIENTED_EDGE ( 'NONE', *, *, #813, .F. ) ;
#467 = CARTESIAN_POINT ( 'NONE',  ( -1.355252715606880543E-17, 0.0000000000000000000, 0.2770833333333334036 ) ) ;
#468 = DIRECTION ( 'NONE',  ( -1.000000000000000000, 0.0000000000000000000, 1.084202172485504434E-16 ) ) ;
#469 = ADVANCED_FACE ( 'NONE', ( #559 ), #44, .F. ) ;
#470 = FACE_OUTER_BOUND ( 'NONE', #594, .T. ) ;
#471 = DIRECTION ( 'NONE',  ( 0.0000000000000000000, -0.0000000000000000000, 1.000000000000000000 ) ) ;
#472 = MECHANICAL_DESIGN_GEOMETRIC_PRESENTATION_REPRESENTATION (  '', ( #93 ), #571 ) ;
#473 = CARTESIAN_POINT ( 'NONE',  ( 0.4999999999999998890, 0.5000000000000000000, -0.2500000000000001110 ) ) ;
#474 =( GEOMETRIC_REPRESENTATION_CONTEXT ( 3 ) GLOBAL_UNCERTAINTY_ASSIGNED_CONTEXT ( ( #761 ) ) GLOBAL_UNIT_ASSIGNED_CONTEXT ( ( #839, #186, #720 ) ) REPRESENTATION_CONTEXT ( 'NONE', 'WORKASPACE' ) );
#475 = CARTESIAN_POINT ( 'NONE',  ( 0.3300000000000001266, 0.0000000000000000000, 0.0000000000000000000 ) ) ;
#476 = EDGE_LOOP ( 'NONE', ( #519, #857, #465, #595 ) ) ;
#477 = VECTOR ( 'NONE', #661, 1000.000000000000000 ) ;
#478 = PLANE ( 'NONE',  #35 ) ;
#479 =( NAMED_UNIT ( * ) PLANE_ANGLE_UNIT ( ) SI_UNIT ( $, .RADIAN. ) );
#480 = EDGE_CURVE ( 'NONE', #454, #336, #785, .T. ) ;
#481 = PLANE ( 'NONE',  #807 ) ;
#482 = DIRECTION ( 'NONE',  ( -1.000000000000000000, 0.0000000000000000000, 1.084202172485504434E-16 ) ) ;
#483 = AXIS2_PLACEMENT_3D ( 'NONE', #231, #228, #296 ) ;
#484 = VECTOR ( 'NONE', #809, 1000.000000000000000 ) ;
#485 = DIRECTION ( 'NONE',  ( 0.0000000000000000000, 0.0000000000000000000, -1.000000000000000000 ) ) ;
#486 = CARTESIAN_POINT ( 'NONE',  ( 0.1750000000000000444, 0.0000000000000000000, -0.2500000000000000555 ) ) ;
#487 = DIRECTION ( 'NONE',  ( 0.0000000000000000000, 1.000000000000000000, 0.0000000000000000000 ) ) ;
#488 = CARTESIAN_POINT ( 'NONE',  ( 0.4999999999999998890, 0.5000000000000000000, 0.2499999999999998890 ) ) ;
#489 = FACE_OUTER_BOUND ( 'NONE', #199, .T. ) ;
#490 = DIRECTION ( 'NONE',  ( -1.084202172485504434E-16, 0.0000000000000000000, -1.000000000000000000 ) ) ;
#491 = PLANE ( 'NONE',  #533 ) ;
#492 = DIRECTION ( 'NONE',  ( 0.0000000000000000000, 0.0000000000000000000, -1.000000000000000000 ) ) ;
#493 =( GEOMETRIC_REPRESENTATION_CONTEXT ( 3 ) GLOBAL_UNCERTAINTY_ASSIGNED_CONTEXT ( ( #798 ) ) GLOBAL_UNIT_ASSIGNED_CONTEXT ( ( #774, #578, #196 ) ) REPRESENTATION_CONTEXT ( 'NONE', 'WORKASPACE' ) );
#494 = CARTESIAN_POINT ( 'NONE',  ( -0.1750000000000000444, 0.0000000000000000000, -0.2500000000000000555 ) ) ;
#495 = CARTESIAN_POINT ( 'NONE',  ( 0.3300000000000001266, 0.0000000000000000000, -0.2500000000000001110 ) ) ;
#496 = LINE ( 'NONE', #488, #853 ) ;
#497 = CARTESIAN_POINT ( 'NONE',  ( -1.355252715606880543E-17, 0.5000000000000000000, -0.1000000000000000194 ) ) ;
#498 = EDGE_CURVE ( 'NONE', #910, #737, #206, .T. ) ;
#499 = CARTESIAN_POINT ( 'NONE',  ( 0.4999999999999998890, 0.5000000000000000000, 0.2499999999999998890 ) ) ;
#500 = VERTEX_POINT ( 'NONE', #324 ) ;
#501 = ORIENTED_EDGE ( 'NONE', *, *, #265, .F. ) ;
#502 = LINE ( 'NONE', #459, #602 ) ;
#503 = CARTESIAN_POINT ( 'NONE',  ( -0.5000000000000001110, 0.5000000000000000000, 0.2500000000000000000 ) ) ;
#504 = CARTESIAN_POINT ( 'NONE',  ( 0.4999999999999998890, 0.5000000000000000000, -0.2500000000000001110 ) ) ;
#505 = DIRECTION ( 'NONE',  ( 0.0000000000000000000, 0.0000000000000000000, -1.000000000000000000 ) ) ;
#506 = ADVANCED_FACE ( 'NONE', ( #442 ), #250, .F. ) ;
#507 = LINE ( 'NONE', #340, #302 ) ;
#508 = MANIFOLD_SOLID_BREP ( 'Split1[3]', #662 ) ;
#509 = VECTOR ( 'NONE', #924, 1000.000000000000000 ) ;
#510 = DIRECTION ( 'NONE',  ( 0.0000000000000000000, 1.000000000000000000, 0.0000000000000000000 ) ) ;
#511 = ADVANCED_FACE ( 'NONE', ( #376 ), #398, .T. ) ;
#512 = VERTEX_POINT ( 'NONE', #407 ) ;
#513 = STYLED_ITEM ( 'NONE', ( #884 ), #508 ) ;
#514 = VERTEX_POINT ( 'NONE', #34 ) ;
#515 = LINE ( 'NONE', #360, #644 ) ;
#516 = DIRECTION ( 'NONE',  ( 0.0000000000000000000, 1.000000000000000000, 0.0000000000000000000 ) ) ;
#517 = VERTEX_POINT ( 'NONE', #607 ) ;
#518 = LINE ( 'NONE', #204, #719 ) ;
#519 = ORIENTED_EDGE ( 'NONE', *, *, #305, .T. ) ;
#520 = AXIS2_PLACEMENT_3D ( 'NONE', #200, #633, #124 ) ;
#521 = CARTESIAN_POINT ( 'NONE',  ( -0.3300000000000001266, 0.5000000000000000000, 0.2500000000000000000 ) ) ;
#522 = CARTESIAN_POINT ( 'NONE',  ( 0.1749999999999999611, 0.0000000000000000000, 0.2499999999999999445 ) ) ;
#523 = EDGE_CURVE ( 'NONE', #397, #134, #259, .T. ) ;
#524 = ORIENTED_EDGE ( 'NONE', *, *, #881, .T. ) ;
#525 = ORIENTED_EDGE ( 'NONE', *, *, #540, .F. ) ;
#526 = ADVANCED_FACE ( 'NONE', ( #572 ), #825, .F. ) ;
#527 = LINE ( 'NONE', #824, #755 ) ;
#528 = UNCERTAINTY_MEASURE_WITH_UNIT (LENGTH_MEASURE( 1.000000000000000082E-05 ), #835, 'distance_accuracy_value', 'NONE');
#529 = ORIENTED_EDGE ( 'NONE', *, *, #95, .T. ) ;
#530 = CIRCLE ( 'NONE', #914, 0.1770833333333333426 ) ;
#531 = ORIENTED_EDGE ( 'NONE', *, *, #149, .F. ) ;
#532 = CARTESIAN_POINT ( 'NONE',  ( 0.4999999999999998890, 0.0000000000000000000, -0.2500000000000001110 ) ) ;
#533 = AXIS2_PLACEMENT_3D ( 'NONE', #113, #625, #766 ) ;
#534 = ADVANCED_FACE ( 'NONE', ( #470 ), #746, .F. ) ;
#535 = VERTEX_POINT ( 'NONE', #742 ) ;
#536 = ORIENTED_EDGE ( 'NONE', *, *, #589, .T. ) ;
#537 = EDGE_LOOP ( 'NONE', ( #128, #359, #126, #434 ) ) ;
#538 = CIRCLE ( 'NONE', #656, 0.1770833333333333703 ) ;
#539 = CARTESIAN_POINT ( 'NONE',  ( 0.1750000000000000444, 0.5000000000000000000, -0.2500000000000000555 ) ) ;
#540 = EDGE_CURVE ( 'NONE', #278, #453, #666, .T. ) ;
#541 = VERTEX_POINT ( 'NONE', #486 ) ;
#542 = ADVANCED_FACE ( 'NONE', ( #66 ), #347, .T. ) ;
#543 = CARTESIAN_POINT ( 'NONE',  ( -1.355252715606880543E-17, 0.5000000000000000000, -0.1000000000000000194 ) ) ;
#544 = CARTESIAN_POINT ( 'NONE',  ( -0.3300000000000001266, 0.0000000000000000000, -0.2500000000000000000 ) ) ;
#545 = CARTESIAN_POINT ( 'NONE',  ( 0.4999999999999998890, 0.5000000000000000000, -0.2500000000000001110 ) ) ;
#546 = VECTOR ( 'NONE', #65, 1000.000000000000000 ) ;
#547 = DIRECTION ( 'NONE',  ( 0.0000000000000000000, 0.0000000000000000000, 1.000000000000000000 ) ) ;
#548 = LINE ( 'NONE', #345, #609 ) ;
#549 = DIRECTION ( 'NONE',  ( 1.000000000000000000, 0.0000000000000000000, -1.084202172485504434E-16 ) ) ;
#550 = EDGE_LOOP ( 'NONE', ( #152, #421, #600, #869 ) ) ;
#551 = ORIENTED_EDGE ( 'NONE', *, *, #201, .F. ) ;
#552 = CARTESIAN_POINT ( 'NONE',  ( 0.4999999999999998890, 0.0000000000000000000, -0.2500000000000001110 ) ) ;
#553 = ORIENTED_EDGE ( 'NONE', *, *, #691, .F. ) ;
#554 = FILL_AREA_STYLE_COLOUR ( '', #713 ) ;
#555 = AXIS2_PLACEMENT_3D ( 'NONE', #239, #735, #471 ) ;
#556 = CARTESIAN_POINT ( 'NONE',  ( 0.4999999999999998890, 0.0000000000000000000, -0.2500000000000001110 ) ) ;
#557 = EDGE_CURVE ( 'NONE', #679, #880, #123, .T. ) ;
#558 = CARTESIAN_POINT ( 'NONE',  ( 0.1749999999999999611, 0.5000000000000000000, 0.2499999999999999445 ) ) ;
#559 = FACE_OUTER_BOUND ( 'NONE', #638, .T. ) ;
#560 = DIRECTION ( 'NONE',  ( -0.0000000000000000000, -1.000000000000000000, -0.0000000000000000000 ) ) ;
#561 = EDGE_CURVE ( 'NONE', #211, #583, #866, .T. ) ;
#562 = ORIENTED_EDGE ( 'NONE', *, *, #751, .T. ) ;
#563 = VERTEX_POINT ( 'NONE', #125 ) ;
#564 = DIRECTION ( 'NONE',  ( -0.0000000000000000000, -1.000000000000000000, -0.0000000000000000000 ) ) ;
#565 = CARTESIAN_POINT ( 'NONE',  ( -0.5000000000000001110, 0.0000000000000000000, 0.2500000000000000000 ) ) ;
#566 = ORIENTED_EDGE ( 'NONE', *, *, #76, .F. ) ;
#567 = PRODUCT_CONTEXT ( 'NONE', #207, 'mechanical' ) ;
#568 = SURFACE_SIDE_STYLE ('',( #349 ) ) ;
#569 = EDGE_LOOP ( 'NONE', ( #85, #822, #501, #882 ) ) ;
#570 =( NAMED_UNIT ( * ) SI_UNIT ( $, .STERADIAN. ) SOLID_ANGLE_UNIT ( ) );
#571 =( GEOMETRIC_REPRESENTATION_CONTEXT ( 3 ) GLOBAL_UNCERTAINTY_ASSIGNED_CONTEXT ( ( #528 ) ) GLOBAL_UNIT_ASSIGNED_CONTEXT ( ( #835, #105, #613 ) ) REPRESENTATION_CONTEXT ( 'NONE', 'WORKASPACE' ) );
#572 = FACE_OUTER_BOUND ( 'NONE', #537, .T. ) ;
#573 = CARTESIAN_POINT ( 'NONE',  ( 0.3300000000000001266, 0.5000000000000000000, 0.0000000000000000000 ) ) ;
#574 = VECTOR ( 'NONE', #468, 1000.000000000000000 ) ;
#575 = ORIENTED_EDGE ( 'NONE', *, *, #321, .T. ) ;
#576 = DIRECTION ( 'NONE',  ( 0.0000000000000000000, 1.000000000000000000, 0.0000000000000000000 ) ) ;
#577 = EDGE_CURVE ( 'NONE', #150, #56, #88, .T. ) ;
#578 =( NAMED_UNIT ( * ) PLANE_ANGLE_UNIT ( ) SI_UNIT ( $, .RADIAN. ) );
#579 = CLOSED_SHELL ( 'NONE', ( #36, #98, #235, #79, #542, #740, #90, #526, #795, #675, #209 ) ) ;
#580 = VECTOR ( 'NONE', #485, 1000.000000000000000 ) ;
#581 = EDGE_CURVE ( 'NONE', #385, #910, #285, .T. ) ;
#582 = FACE_OUTER_BOUND ( 'NONE', #429, .T. ) ;
#583 = VERTEX_POINT ( 'NONE', #917 ) ;
#584 = CARTESIAN_POINT ( 'NONE',  ( -0.1750000000000000167, 0.0000000000000000000, 0.2499999999999999445 ) ) ;
#585 = CIRCLE ( 'NONE', #444, 0.1770833333333333703 ) ;
#586 = ORIENTED_EDGE ( 'NONE', *, *, #163, .T. ) ;
#587 = FACE_OUTER_BOUND ( 'NONE', #372, .T. ) ;
#588 = VERTEX_POINT ( 'NONE', #552 ) ;
#589 = EDGE_CURVE ( 'NONE', #679, #880, #496, .T. ) ;
#590 = VECTOR ( 'NONE', #404, 1000.000000000000000 ) ;
#591 = CYLINDRICAL_SURFACE ( 'NONE', #82, 0.1770833333333333703 ) ;
#592 = ORIENTED_EDGE ( 'NONE', *, *, #377, .T. ) ;
#593 = DIRECTION ( 'NONE',  ( 0.0000000000000000000, 1.000000000000000000, 0.0000000000000000000 ) ) ;
#594 = EDGE_LOOP ( 'NONE', ( #351, #383 ) ) ;
#595 = ORIENTED_EDGE ( 'NONE', *, *, #381, .F. ) ;
#596 = FACE_OUTER_BOUND ( 'NONE', #550, .T. ) ;
#597 = DIRECTION ( 'NONE',  ( 0.0000000000000000000, 1.000000000000000000, 0.0000000000000000000 ) ) ;
#598 = AXIS2_PLACEMENT_3D ( 'NONE', #925, #777, #920 ) ;
#599 =( GEOMETRIC_REPRESENTATION_CONTEXT ( 3 ) GLOBAL_UNCERTAINTY_ASSIGNED_CONTEXT ( ( #654 ) ) GLOBAL_UNIT_ASSIGNED_CONTEXT ( ( #122, #271, #922 ) ) REPRESENTATION_CONTEXT ( 'NONE', 'WORKASPACE' ) );
#600 = ORIENTED_EDGE ( 'NONE', *, *, #813, .T. ) ;
#601 = ORIENTED_EDGE ( 'NONE', *, *, #617, .F. ) ;
#602 = VECTOR ( 'NONE', #450, 1000.000000000000000 ) ;
#603 = EDGE_LOOP ( 'NONE', ( #566, #663, #222, #525 ) ) ;
#604 = CARTESIAN_POINT ( 'NONE',  ( 0.4999999999999998890, 0.5000000000000000000, -0.2500000000000001110 ) ) ;
#605 = ORIENTED_EDGE ( 'NONE', *, *, #881, .F. ) ;
#606 = CARTESIAN_POINT ( 'NONE',  ( -1.355252715606880543E-17, 0.0000000000000000000, -0.2770833333333334036 ) ) ;
#607 = CARTESIAN_POINT ( 'NONE',  ( 0.1749999999999999611, 0.5000000000000000000, 0.2499999999999999445 ) ) ;
#608 = LINE ( 'NONE', #858, #872 ) ;
#609 = VECTOR ( 'NONE', #629, 1000.000000000000000 ) ;
#610 = PRESENTATION_LAYER_ASSIGNMENT (  '', '', ( #93 ) ) ;
#611 = DIRECTION ( 'NONE',  ( -1.000000000000000000, 0.0000000000000000000, 1.084202172485504434E-16 ) ) ;
#612 = ORIENTED_EDGE ( 'NONE', *, *, #540, .T. ) ;
#613 =( NAMED_UNIT ( * ) SI_UNIT ( $, .STERADIAN. ) SOLID_ANGLE_UNIT ( ) );
#614 = VERTEX_POINT ( 'NONE', #58 ) ;
#615 = DIRECTION ( 'NONE',  ( 1.084202172485504434E-16, -0.0000000000000000000, 1.000000000000000000 ) ) ;
#616 = VECTOR ( 'NONE', #456, 1000.000000000000000 ) ;
#617 = EDGE_CURVE ( 'NONE', #134, #514, #226, .T. ) ;
#618 = DIRECTION ( 'NONE',  ( -1.000000000000000000, 0.0000000000000000000, 1.084202172485504434E-16 ) ) ;
#619 = DIRECTION ( 'NONE',  ( 0.0000000000000000000, 1.000000000000000000, 0.0000000000000000000 ) ) ;
#620 = CARTESIAN_POINT ( 'NONE',  ( -0.1750000000000000167, 0.5000000000000000000, 0.2499999999999999445 ) ) ;
#621 = LINE ( 'NONE', #635, #457 ) ;
#622 = FILL_AREA_STYLE_COLOUR ( '', #802 ) ;
#623 = LINE ( 'NONE', #118, #191 ) ;
#624 = PLANE ( 'NONE',  #358 ) ;
#625 = DIRECTION ( 'NONE',  ( 1.000000000000000000, -0.0000000000000000000, 0.0000000000000000000 ) ) ;
#626 = DIRECTION ( 'NONE',  ( 8.881784197001252323E-16, 0.0000000000000000000, 1.000000000000000000 ) ) ;
#627 = CARTESIAN_POINT ( 'NONE',  ( -0.3300000000000001266, 0.0000000000000000000, 0.2500000000000000000 ) ) ;
#628 = CYLINDRICAL_SURFACE ( 'NONE', #846, 0.1770833333333333703 ) ;
#629 = DIRECTION ( 'NONE',  ( 0.0000000000000000000, 0.0000000000000000000, -1.000000000000000000 ) ) ;
#630 = DIRECTION ( 'NONE',  ( 0.0000000000000000000, -0.0000000000000000000, 1.000000000000000000 ) ) ;
#631 = ORIENTED_EDGE ( 'NONE', *, *, #257, .T. ) ;
#632 = CARTESIAN_POINT ( 'NONE',  ( 0.4999999999999998890, 0.5000000000000000000, -0.2500000000000001110 ) ) ;
#633 = DIRECTION ( 'NONE',  ( 0.0000000000000000000, 1.000000000000000000, 0.0000000000000000000 ) ) ;
#634 = AXIS2_PLACEMENT_3D ( 'NONE', #102, #242, #903 ) ;
#635 = CARTESIAN_POINT ( 'NONE',  ( 0.4999999999999998890, 0.0000000000000000000, 0.2499999999999998890 ) ) ;
#636 = CARTESIAN_POINT ( 'NONE',  ( 0.4999999999999998890, 0.0000000000000000000, -0.2500000000000001110 ) ) ;
#637 = DIRECTION ( 'NONE',  ( 0.0000000000000000000, -0.0000000000000000000, 1.000000000000000000 ) ) ;
#638 = EDGE_LOOP ( 'NONE', ( #856, #928, #878, #710 ) ) ;
#639 = DIRECTION ( 'NONE',  ( 0.0000000000000000000, 0.0000000000000000000, 1.000000000000000000 ) ) ;
#640 = DIRECTION ( 'NONE',  ( 0.0000000000000000000, 0.0000000000000000000, -1.000000000000000000 ) ) ;
#641 = VECTOR ( 'NONE', #650, 1000.000000000000000 ) ;
#642 = CARTESIAN_POINT ( 'NONE',  ( 0.0000000000000000000, 0.5000000000000000000, 0.0000000000000000000 ) ) ;
#643 = PLANE ( 'NONE',  #844 ) ;
#644 = VECTOR ( 'NONE', #931, 1000.000000000000000 ) ;
#645 = ORIENTED_EDGE ( 'NONE', *, *, #557, .F. ) ;
#646 = VECTOR ( 'NONE', #319, 1000.000000000000000 ) ;
#647 = EDGE_CURVE ( 'NONE', #252, #669, #237, .T. ) ;
#648 = ADVANCED_FACE ( 'NONE', ( #805 ), #854, .F. ) ;
#649 = VECTOR ( 'NONE', #73, 1000.000000000000000 ) ;
#650 = DIRECTION ( 'NONE',  ( 0.0000000000000000000, 1.000000000000000000, 0.0000000000000000000 ) ) ;
#651 = ORIENTED_EDGE ( 'NONE', *, *, #84, .F. ) ;
#652 = CYLINDRICAL_SURFACE ( 'NONE', #343, 0.1770833333333333703 ) ;
#653 = EDGE_CURVE ( 'NONE', #514, #712, #782, .T. ) ;
#654 = UNCERTAINTY_MEASURE_WITH_UNIT (LENGTH_MEASURE( 1.000000000000000082E-05 ), #122, 'distance_accuracy_value', 'NONE');
#655 = FACE_OUTER_BOUND ( 'NONE', #476, .T. ) ;
#656 = AXIS2_PLACEMENT_3D ( 'NONE', #852, #423, #926 ) ;
#657 = COLOUR_RGB ( '',0.7921568627450980005, 0.8196078431372548767, 0.9333333333333333481 ) ;
#658 = DIRECTION ( 'NONE',  ( 0.0000000000000000000, 1.000000000000000000, 0.0000000000000000000 ) ) ;
#659 = ORIENTED_EDGE ( 'NONE', *, *, #74, .T. ) ;
#660 = VECTOR ( 'NONE', #929, 1000.000000000000000 ) ;
#661 = DIRECTION ( 'NONE',  ( -0.0000000000000000000, -1.000000000000000000, -0.0000000000000000000 ) ) ;
#662 = CLOSED_SHELL ( 'NONE', ( #314, #708, #506, #648, #469, #361 ) ) ;
#663 = ORIENTED_EDGE ( 'NONE', *, *, #867, .T. ) ;
#664 = DIRECTION ( 'NONE',  ( 0.0000000000000000000, 1.000000000000000000, 0.0000000000000000000 ) ) ;
#665 = AXIS2_PLACEMENT_3D ( 'NONE', #415, #763, #335 ) ;
#666 = CIRCLE ( 'NONE', #665, 0.1770833333333333703 ) ;
#667 = CARTESIAN_POINT ( 'NONE',  ( -0.1750000000000000167, 0.0000000000000000000, 0.2499999999999999445 ) ) ;
#668 = MECHANICAL_DESIGN_GEOMETRIC_PRESENTATION_REPRESENTATION (  '', ( #219 ), #599 ) ;
#669 = VERTEX_POINT ( 'NONE', #772 ) ;
#670 =( LENGTH_UNIT ( ) NAMED_UNIT ( * ) SI_UNIT ( .MILLI., .METRE. ) );
#671 = VERTEX_POINT ( 'NONE', #273 ) ;
#672 = VERTEX_POINT ( 'NONE', #851 ) ;
#673 = CARTESIAN_POINT ( 'NONE',  ( 0.4999999999999998890, 0.5000000000000000000, 0.2499999999999998890 ) ) ;
#674 = ORIENTED_EDGE ( 'NONE', *, *, #304, .T. ) ;
#675 = ADVANCED_FACE ( 'NONE', ( #815 ), #182, .F. ) ;
#676 = FACE_OUTER_BOUND ( 'NONE', #101, .T. ) ;
#677 = LINE ( 'NONE', #636, #357 ) ;
#678 = DIRECTION ( 'NONE',  ( -0.0000000000000000000, -1.000000000000000000, -0.0000000000000000000 ) ) ;
#679 = VERTEX_POINT ( 'NONE', #129 ) ;
#680 = SURFACE_SIDE_STYLE ('',( #188 ) ) ;
#681 = VERTEX_POINT ( 'NONE', #692 ) ;
#682 = ORIENTED_EDGE ( 'NONE', *, *, #722, .T. ) ;
#683 = ADVANCED_BREP_SHAPE_REPRESENTATION ( 'NFM15PC104D0J3', ( #260, #367, #508, #25, #892, #716 ), #145 ) ;
#684 = SURFACE_STYLE_FILL_AREA ( #181 ) ;
#685 = CARTESIAN_POINT ( 'NONE',  ( -1.355252715606880543E-17, 0.0000000000000000000, -0.2770833333333334036 ) ) ;
#686 = AXIS2_PLACEMENT_3D ( 'NONE', #320, #833, #630 ) ;
#687 = ORIENTED_EDGE ( 'NONE', *, *, #265, .T. ) ;
#688 = EDGE_CURVE ( 'NONE', #910, #588, #81, .T. ) ;
#689 = DIRECTION ( 'NONE',  ( 1.084202172485504434E-16, -0.0000000000000000000, 1.000000000000000000 ) ) ;
#690 = PLANE ( 'NONE',  #520 ) ;
#691 = EDGE_CURVE ( 'NONE', #672, #385, #52, .T. ) ;
#692 = CARTESIAN_POINT ( 'NONE',  ( 0.1750000000000000444, 0.5000000000000000000, -0.2500000000000000555 ) ) ;
#693 = LINE ( 'NONE', #140, #138 ) ;
#694 = CARTESIAN_POINT ( 'NONE',  ( 0.0000000000000000000, 0.0000000000000000000, 0.0000000000000000000 ) ) ;
#695 = SURFACE_STYLE_USAGE ( .BOTH. , #725 ) ;
#696 = CARTESIAN_POINT ( 'NONE',  ( 0.4999999999999998890, 0.0000000000000000000, 0.2499999999999998890 ) ) ;
#697 = APPLICATION_PROTOCOL_DEFINITION ( 'draft international standard', 'automotive_design', 1998, #207 ) ;
#698 = ORIENTED_EDGE ( 'NONE', *, *, #95, .F. ) ;
#699 = ORIENTED_EDGE ( 'NONE', *, *, #399, .T. ) ;
#700 = ORIENTED_EDGE ( 'NONE', *, *, #577, .T. ) ;
#701 = ORIENTED_EDGE ( 'NONE', *, *, #216, .T. ) ;
#702 = CARTESIAN_POINT ( 'NONE',  ( 0.0000000000000000000, 0.5000000000000000000, 0.0000000000000000000 ) ) ;
#703 = VECTOR ( 'NONE', #432, 1000.000000000000000 ) ;
#704 = CIRCLE ( 'NONE', #276, 0.1770833333333333703 ) ;
#705 = EDGE_CURVE ( 'NONE', #56, #512, #621, .T. ) ;
#706 = DIRECTION ( 'NONE',  ( 0.0000000000000000000, 0.0000000000000000000, -1.000000000000000000 ) ) ;
#707 = ORIENTED_EDGE ( 'NONE', *, *, #6, .T. ) ;
#708 = ADVANCED_FACE ( 'NONE', ( #676 ), #428, .T. ) ;
#709 = AXIS2_PLACEMENT_3D ( 'NONE', #96, #615, #549 ) ;
#710 = ORIENTED_EDGE ( 'NONE', *, *, #688, .T. ) ;
#711 = CIRCLE ( 'NONE', #172, 0.1770833333333333703 ) ;
#712 = VERTEX_POINT ( 'NONE', #495 ) ;
#713 = COLOUR_RGB ( '',0.7921568627450980005, 0.8196078431372548767, 0.9333333333333333481 ) ;
#714 = ADVANCED_FACE ( 'NONE', ( #323 ), #935, .F. ) ;
#715 = VECTOR ( 'NONE', #482, 1000.000000000000000 ) ;
#716 = AXIS2_PLACEMENT_3D ( 'NONE', #694, #936, #284 ) ;
#717 = AXIS2_PLACEMENT_3D ( 'NONE', #673, #272, #3 ) ;
#718 = ORIENTED_EDGE ( 'NONE', *, *, #448, .T. ) ;
#719 = VECTOR ( 'NONE', #61, 1000.000000000000000 ) ;
#720 =( NAMED_UNIT ( * ) SI_UNIT ( $, .STERADIAN. ) SOLID_ANGLE_UNIT ( ) );
#721 = ORIENTED_EDGE ( 'NONE', *, *, #76, .T. ) ;
#722 = EDGE_CURVE ( 'NONE', #134, #517, #515, .T. ) ;
#723 = PLANE ( 'NONE',  #731 ) ;
#724 = VECTOR ( 'NONE', #752, 1000.000000000000000 ) ;
#725 = SURFACE_SIDE_STYLE ('',( #303 ) ) ;
#726 = VERTEX_POINT ( 'NONE', #353 ) ;
#727 = FACE_OUTER_BOUND ( 'NONE', #937, .T. ) ;
#728 = LINE ( 'NONE', #10, #363 ) ;
#729 = ORIENTED_EDGE ( 'NONE', *, *, #647, .F. ) ;
#730 = CARTESIAN_POINT ( 'NONE',  ( -0.5000000000000001110, 0.5000000000000000000, 0.2500000000000000000 ) ) ;
#731 = AXIS2_PLACEMENT_3D ( 'NONE', #808, #814, #375 ) ;
#732 = CYLINDRICAL_SURFACE ( 'NONE', #875, 0.1770833333333333426 ) ;
#733 = CARTESIAN_POINT ( 'NONE',  ( 0.4999999999999998890, 0.5000000000000000000, -0.2500000000000001110 ) ) ;
#734 = ORIENTED_EDGE ( 'NONE', *, *, #305, .F. ) ;
#735 = DIRECTION ( 'NONE',  ( 0.0000000000000000000, 1.000000000000000000, 0.0000000000000000000 ) ) ;
#736 = EDGE_CURVE ( 'NONE', #679, #211, #693, .T. ) ;
#737 = VERTEX_POINT ( 'NONE', #136 ) ;
#738 = CARTESIAN_POINT ( 'NONE',  ( -0.5000000000000001110, 0.0000000000000000000, -0.2500000000000000000 ) ) ;
#739 = DIRECTION ( 'NONE',  ( 0.0000000000000000000, 1.000000000000000000, 0.0000000000000000000 ) ) ;
#740 = ADVANCED_FACE ( 'NONE', ( #311 ), #643, .T. ) ;
#741 = CLOSED_SHELL ( 'NONE', ( #218, #248, #5, #310, #441 ) ) ;
#742 = CARTESIAN_POINT ( 'NONE',  ( -1.355252715606880543E-17, 0.0000000000000000000, -0.1000000000000000194 ) ) ;
#743 = AXIS2_PLACEMENT_3D ( 'NONE', #114, #195, #626 ) ;
#744 = LINE ( 'NONE', #905, #590 ) ;
#745 = PLANE ( 'NONE',  #439 ) ;
#746 = PLANE ( 'NONE',  #686 ) ;
#747 = CIRCLE ( 'NONE', #927, 0.1770833333333333703 ) ;
#748 = DIRECTION ( 'NONE',  ( 0.0000000000000000000, -0.0000000000000000000, 1.000000000000000000 ) ) ;
#749 = CARTESIAN_POINT ( 'NONE',  ( -0.3300000000000001266, 0.5000000000000000000, 0.2500000000000000000 ) ) ;
#750 = DIRECTION ( 'NONE',  ( 0.0000000000000000000, 1.000000000000000000, 0.0000000000000000000 ) ) ;
#751 = EDGE_CURVE ( 'NONE', #908, #669, #796, .T. ) ;
#752 = DIRECTION ( 'NONE',  ( 0.0000000000000000000, 0.0000000000000000000, -1.000000000000000000 ) ) ;
#753 = ORIENTED_EDGE ( 'NONE', *, *, #431, .F. ) ;
#754 = ORIENTED_EDGE ( 'NONE', *, *, #751, .F. ) ;
#755 = VECTOR ( 'NONE', #33, 1000.000000000000000 ) ;
#756 = SURFACE_SIDE_STYLE ('',( #684 ) ) ;
#757 = ORIENTED_EDGE ( 'NONE', *, *, #381, .T. ) ;
#758 = CARTESIAN_POINT ( 'NONE',  ( 0.4999999999999998890, 0.0000000000000000000, 0.2499999999999998890 ) ) ;
#759 = DIRECTION ( 'NONE',  ( 1.000000000000000000, -0.0000000000000000000, 0.0000000000000000000 ) ) ;
#760 = EDGE_CURVE ( 'NONE', #517, #614, #608, .T. ) ;
#761 = UNCERTAINTY_MEASURE_WITH_UNIT (LENGTH_MEASURE( 1.000000000000000082E-05 ), #839, 'distance_accuracy_value', 'NONE');
#762 = ORIENTED_EDGE ( 'NONE', *, *, #736, .F. ) ;
#763 = DIRECTION ( 'NONE',  ( 0.0000000000000000000, 1.000000000000000000, 0.0000000000000000000 ) ) ;
#764 = PLANE ( 'NONE',  #55 ) ;
#765 = VECTOR ( 'NONE', #54, 1000.000000000000000 ) ;
#766 = DIRECTION ( 'NONE',  ( 0.0000000000000000000, 0.0000000000000000000, -1.000000000000000000 ) ) ;
#767 = CARTESIAN_POINT ( 'NONE',  ( -0.3300000000000001266, 0.5000000000000000000, -0.2500000000000000000 ) ) ;
#768 = VERTEX_POINT ( 'NONE', #781 ) ;
#769 = EDGE_LOOP ( 'NONE', ( #344, #698, #48, #592 ) ) ;
#770 = PLANE ( 'NONE',  #146 ) ;
#771 = EDGE_LOOP ( 'NONE', ( #859, #410, #451 ) ) ;
#772 = CARTESIAN_POINT ( 'NONE',  ( -0.3300000000000001266, 0.0000000000000000000, -0.2500000000000000000 ) ) ;
#773 = VECTOR ( 'NONE', #597, 1000.000000000000000 ) ;
#774 =( LENGTH_UNIT ( ) NAMED_UNIT ( * ) SI_UNIT ( .MILLI., .METRE. ) );
#775 = PRODUCT_DEFINITION ( 'UNKNOWN', '', #823, #277 ) ;
#776 = ORIENTED_EDGE ( 'NONE', *, *, #244, .F. ) ;
#777 = DIRECTION ( 'NONE',  ( -1.084202172485504434E-16, 0.0000000000000000000, -1.000000000000000000 ) ) ;
#778 = AXIS2_PLACEMENT_3D ( 'NONE', #907, #658, #246 ) ;
#779 =( LENGTH_UNIT ( ) NAMED_UNIT ( * ) SI_UNIT ( .MILLI., .METRE. ) );
#780 = EDGE_CURVE ( 'NONE', #895, #1, #108, .T. ) ;
#781 = CARTESIAN_POINT ( 'NONE',  ( -0.1750000000000000444, 0.5000000000000000000, -0.2500000000000000555 ) ) ;
#782 = LINE ( 'NONE', #342, #11 ) ;
#783 = APPLICATION_PROTOCOL_DEFINITION ( 'draft international standard', 'automotive_design', 1998, #848 ) ;
#784 = FILL_AREA_STYLE_COLOUR ( '', #899 ) ;
#785 = LINE ( 'NONE', #316, #406 ) ;
#786 = ORIENTED_EDGE ( 'NONE', *, *, #800, .F. ) ;
#787 = CARTESIAN_POINT ( 'NONE',  ( -0.3300000000000001266, 0.0000000000000000000, 0.0000000000000000000 ) ) ;
#788 =( NAMED_UNIT ( * ) PLANE_ANGLE_UNIT ( ) SI_UNIT ( $, .RADIAN. ) );
#789 = VERTEX_POINT ( 'NONE', #137 ) ;
#790 = ORIENTED_EDGE ( 'NONE', *, *, #557, .T. ) ;
#791 = FACE_OUTER_BOUND ( 'NONE', #460, .T. ) ;
#792 = DIRECTION ( 'NONE',  ( 1.000000000000000000, -0.0000000000000000000, -1.084202172485504434E-16 ) ) ;
#793 = ORIENTED_EDGE ( 'NONE', *, *, #368, .T. ) ;
#794 = FILL_AREA_STYLE ('',( #187 ) ) ;
#795 = ADVANCED_FACE ( 'NONE', ( #655 ), #862, .F. ) ;
#796 = LINE ( 'NONE', #787, #38 ) ;
#797 = AXIS2_PLACEMENT_3D ( 'NONE', #266, #119, #190 ) ;
#798 = UNCERTAINTY_MEASURE_WITH_UNIT (LENGTH_MEASURE( 1.000000000000000082E-05 ), #774, 'distance_accuracy_value', 'NONE');
#799 = ADVANCED_FACE ( 'NONE', ( #293 ), #354, .F. ) ;
#800 = EDGE_CURVE ( 'NONE', #672, #895, #507, .T. ) ;
#801 = EDGE_LOOP ( 'NONE', ( #729, #529, #332, #734, #28, #601, #289, #466, #562 ) ) ;
#802 = COLOUR_RGB ( '',0.4862745098039215619, 0.2352941176470588203, 0.01568627450980392135 ) ;
#803 = EDGE_CURVE ( 'NONE', #336, #726, #97, .T. ) ;
#804 = EDGE_LOOP ( 'NONE', ( #911, #185, #100, #701, #575, #390, #193, #586, #753 ) ) ;
#805 = FACE_OUTER_BOUND ( 'NONE', #297, .T. ) ;
#806 = LINE ( 'NONE', #356, #227 ) ;
#807 = AXIS2_PLACEMENT_3D ( 'NONE', #841, #689, #254 ) ;
#808 = CARTESIAN_POINT ( 'NONE',  ( 0.0000000000000000000, 0.0000000000000000000, 0.0000000000000000000 ) ) ;
#809 = DIRECTION ( 'NONE',  ( 0.0000000000000000000, 1.000000000000000000, 0.0000000000000000000 ) ) ;
#810 = ORIENTED_EDGE ( 'NONE', *, *, #589, .F. ) ;
#811 = CARTESIAN_POINT ( 'NONE',  ( -0.3300000000000001266, 0.0000000000000000000, 0.2500000000000000000 ) ) ;
#812 = ORIENTED_EDGE ( 'NONE', *, *, #464, .F. ) ;
#813 = EDGE_CURVE ( 'NONE', #908, #397, #744, .T. ) ;
#814 = DIRECTION ( 'NONE',  ( 0.0000000000000000000, 1.000000000000000000, 0.0000000000000000000 ) ) ;
#815 = FACE_OUTER_BOUND ( 'NONE', #889, .T. ) ;
#816 = ADVANCED_FACE ( 'NONE', ( #932 ), #481, .F. ) ;
#817 = FACE_OUTER_BOUND ( 'NONE', #847, .T. ) ;
#818 = DIRECTION ( 'NONE',  ( 1.000000000000000000, -0.0000000000000000000, -1.084202172485504434E-16 ) ) ;
#819 = DIRECTION ( 'NONE',  ( -0.0000000000000000000, -1.000000000000000000, -0.0000000000000000000 ) ) ;
#820 = VECTOR ( 'NONE', #618, 1000.000000000000000 ) ;
#821 = DIRECTION ( 'NONE',  ( 0.0000000000000000000, 0.0000000000000000000, -1.000000000000000000 ) ) ;
#822 = ORIENTED_EDGE ( 'NONE', *, *, #23, .T. ) ;
#823 = PRODUCT_DEFINITION_FORMATION_WITH_SPECIFIED_SOURCE ( 'ANY', '', #379, .NOT_KNOWN. ) ;
#824 = CARTESIAN_POINT ( 'NONE',  ( 0.4999999999999998890, 0.5000000000000000000, 0.2499999999999998890 ) ) ;
#825 = PLANE ( 'NONE',  #275 ) ;
#826 = AXIS2_PLACEMENT_3D ( 'NONE', #842, #678, #255 ) ;
#827 = FACE_OUTER_BOUND ( 'NONE', #46, .T. ) ;
#828 = DIRECTION ( 'NONE',  ( 0.0000000000000000000, -1.000000000000000000, 0.0000000000000000000 ) ) ;
#829 = CARTESIAN_POINT ( 'NONE',  ( 0.4999999999999998890, 0.5000000000000000000, 0.2499999999999998890 ) ) ;
#830 = EDGE_CURVE ( 'NONE', #895, #789, #449, .T. ) ;
#831 = ADVANCED_FACE ( 'NONE', ( #827 ), #764, .F. ) ;
#832 = CARTESIAN_POINT ( 'NONE',  ( 0.4999999999999998890, 0.5000000000000000000, 0.2499999999999998890 ) ) ;
#833 = DIRECTION ( 'NONE',  ( 0.0000000000000000000, 1.000000000000000000, 0.0000000000000000000 ) ) ;
#834 = LINE ( 'NONE', #522, #641 ) ;
#835 =( LENGTH_UNIT ( ) NAMED_UNIT ( * ) SI_UNIT ( .MILLI., .METRE. ) );
#836 = DIRECTION ( 'NONE',  ( 0.0000000000000000000, -0.0000000000000000000, 1.000000000000000000 ) ) ;
#837 = CARTESIAN_POINT ( 'NONE',  ( 0.3300000000000001266, 0.0000000000000000000, 0.2499999999999998890 ) ) ;
#838 = VECTOR ( 'NONE', #329, 1000.000000000000000 ) ;
#839 =( LENGTH_UNIT ( ) NAMED_UNIT ( * ) SI_UNIT ( .MILLI., .METRE. ) );
#840 = LINE ( 'NONE', #364, #484 ) ;
#841 = CARTESIAN_POINT ( 'NONE',  ( 0.4999999999999998890, 0.5000000000000000000, -0.2500000000000001110 ) ) ;
#842 = CARTESIAN_POINT ( 'NONE',  ( -1.355252715606880543E-17, 0.0000000000000000000, 0.2770833333333334036 ) ) ;
#843 = DIRECTION ( 'NONE',  ( 0.0000000000000000000, 0.0000000000000000000, -1.000000000000000000 ) ) ;
#844 = AXIS2_PLACEMENT_3D ( 'NONE', #702, #865, #281 ) ;
#845 = CARTESIAN_POINT ( 'NONE',  ( 0.4999999999999998890, 0.5000000000000000000, 0.2499999999999998890 ) ) ;
#846 = AXIS2_PLACEMENT_3D ( 'NONE', #21, #593, #380 ) ;
#847 = EDGE_LOOP ( 'NONE', ( #790, #651, #141, #762 ) ) ;
#848 = APPLICATION_CONTEXT ( 'automotive_design' ) ;
#849 = FILL_AREA_STYLE ('',( #784 ) ) ;
#850 = EDGE_CURVE ( 'NONE', #411, #681, #156, .T. ) ;
#851 = CARTESIAN_POINT ( 'NONE',  ( 0.3300000000000001266, 0.5000000000000000000, 0.2499999999999998890 ) ) ;
#852 = CARTESIAN_POINT ( 'NONE',  ( -1.355252715606880543E-17, 0.5000000000000000000, -0.2770833333333334036 ) ) ;
#853 = VECTOR ( 'NONE', #53, 1000.000000000000000 ) ;
#854 = PLANE ( 'NONE',  #797 ) ;
#855 = PRODUCT_DEFINITION_SHAPE ( 'NONE', 'NONE',  #775 ) ;
#856 = ORIENTED_EDGE ( 'NONE', *, *, #280, .T. ) ;
#857 = ORIENTED_EDGE ( 'NONE', *, *, #850, .T. ) ;
#858 = CARTESIAN_POINT ( 'NONE',  ( 0.4999999999999998890, 0.5000000000000000000, 0.2499999999999998890 ) ) ;
#859 = ORIENTED_EDGE ( 'NONE', *, *, #930, .F. ) ;
#860 = AXIS2_PLACEMENT_3D ( 'NONE', #473, #461, #198 ) ;
#861 = VECTOR ( 'NONE', #819, 1000.000000000000000 ) ;
#862 = PLANE ( 'NONE',  #860 ) ;
#863 = SURFACE_SIDE_STYLE ('',( #169 ) ) ;
#864 = EDGE_CURVE ( 'NONE', #669, #500, #405, .T. ) ;
#865 = DIRECTION ( 'NONE',  ( 0.0000000000000000000, 1.000000000000000000, 0.0000000000000000000 ) ) ;
#866 = LINE ( 'NONE', #696, #546 ) ;
#867 = EDGE_CURVE ( 'NONE', #370, #541, #585, .T. ) ;
#868 = UNCERTAINTY_MEASURE_WITH_UNIT (LENGTH_MEASURE( 1.000000000000000082E-05 ), #51, 'distance_accuracy_value', 'NONE');
#869 = ORIENTED_EDGE ( 'NONE', *, *, #115, .F. ) ;
#870 = LINE ( 'NONE', #573, #660 ) ;
#871 = ORIENTED_EDGE ( 'NONE', *, *, #736, .T. ) ;
#872 = VECTOR ( 'NONE', #792, 1000.000000000000000 ) ;
#873 = PRODUCT_RELATED_PRODUCT_CATEGORY ( 'part', '', ( #379 ) ) ;
#874 = DIRECTION ( 'NONE',  ( -0.0000000000000000000, -1.000000000000000000, -0.0000000000000000000 ) ) ;
#875 = AXIS2_PLACEMENT_3D ( 'NONE', #467, #576, #430 ) ;
#876 = VERTEX_POINT ( 'NONE', #258 ) ;
#877 = DIRECTION ( 'NONE',  ( 0.0000000000000000000, 0.0000000000000000000, 1.000000000000000000 ) ) ;
#878 = ORIENTED_EDGE ( 'NONE', *, *, #498, .F. ) ;
#879 = PRESENTATION_STYLE_ASSIGNMENT (( #435 ) ) ;
#880 = VERTEX_POINT ( 'NONE', #558 ) ;
#881 = EDGE_CURVE ( 'NONE', #614, #514, #24, .T. ) ;
#882 = ORIENTED_EDGE ( 'NONE', *, *, #803, .F. ) ;
#883 = CARTESIAN_POINT ( 'NONE',  ( -1.355252715606880543E-17, 0.0000000000000000000, -0.1000000000000000194 ) ) ;
#884 = PRESENTATION_STYLE_ASSIGNMENT (( #103 ) ) ;
#885 = DIRECTION ( 'NONE',  ( -0.0000000000000000000, -0.0000000000000000000, 1.000000000000000000 ) ) ;
#886 = ORIENTED_EDGE ( 'NONE', *, *, #280, .F. ) ;
#887 = ORIENTED_EDGE ( 'NONE', *, *, #368, .F. ) ;
#888 = LINE ( 'NONE', #733, #78 ) ;
#889 = EDGE_LOOP ( 'NONE', ( #605, #232, #148, #180 ) ) ;
#890 = ORIENTED_EDGE ( 'NONE', *, *, #229, .F. ) ;
#891 = AXIS2_PLACEMENT_3D ( 'NONE', #811, #224, #299 ) ;
#892 = MANIFOLD_SOLID_BREP ( 'Split1[5]', #741 ) ;
#893 = FACE_OUTER_BOUND ( 'NONE', #771, .T. ) ;
#894 = CARTESIAN_POINT ( 'NONE',  ( 0.4999999999999998890, 0.5000000000000000000, -0.2500000000000001110 ) ) ;
#895 = VERTEX_POINT ( 'NONE', #837 ) ;
#896 = CARTESIAN_POINT ( 'NONE',  ( -0.3300000000000001266, 0.0000000000000000000, 0.0000000000000000000 ) ) ;
#897 = ORIENTED_EDGE ( 'NONE', *, *, #135, .F. ) ;
#898 = ORIENTED_EDGE ( 'NONE', *, *, #581, .F. ) ;
#899 = COLOUR_RGB ( '',0.7921568627450980005, 0.8196078431372548767, 0.9333333333333333481 ) ;
#900 = ADVANCED_FACE ( 'NONE', ( #355 ), #624, .T. ) ;
#901 = EDGE_LOOP ( 'NONE', ( #371, #462, #886, #912 ) ) ;
#902 = CARTESIAN_POINT ( 'NONE',  ( 0.3300000000000001266, 0.5000000000000000000, 0.2499999999999998890 ) ) ;
#903 = DIRECTION ( 'NONE',  ( -1.000000000000000000, 0.0000000000000000000, 1.084202172485504434E-16 ) ) ;
#904 = DIRECTION ( 'NONE',  ( -0.0000000000000000000, -1.000000000000000000, -0.0000000000000000000 ) ) ;
#905 = CARTESIAN_POINT ( 'NONE',  ( 0.4999999999999998890, 0.0000000000000000000, 0.2499999999999998890 ) ) ;
#906 = VECTOR ( 'NONE', #49, 1000.000000000000000 ) ;
#907 = CARTESIAN_POINT ( 'NONE',  ( -1.355252715606880543E-17, 0.5000000000000000000, -0.2770833333333334036 ) ) ;
#908 = VERTEX_POINT ( 'NONE', #112 ) ;
#909 = DIRECTION ( 'NONE',  ( 0.0000000000000000000, -0.0000000000000000000, 1.000000000000000000 ) ) ;
#910 = VERTEX_POINT ( 'NONE', #330 ) ;
#911 = ORIENTED_EDGE ( 'NONE', *, *, #377, .F. ) ;
#912 = ORIENTED_EDGE ( 'NONE', *, *, #304, .F. ) ;
#913 = DIRECTION ( 'NONE',  ( 0.0000000000000000000, 0.0000000000000000000, -1.000000000000000000 ) ) ;
#914 = AXIS2_PLACEMENT_3D ( 'NONE', #919, #560, #173 ) ;
#915 = LINE ( 'NONE', #883, #773 ) ;
#916 = ORIENTED_EDGE ( 'NONE', *, *, #691, .T. ) ;
#917 = CARTESIAN_POINT ( 'NONE',  ( 0.1749999999999999611, 0.0000000000000000000, 0.2499999999999999445 ) ) ;
#918 = DIRECTION ( 'NONE',  ( 0.0000000000000000000, 0.0000000000000000000, 1.000000000000000000 ) ) ;
#919 = CARTESIAN_POINT ( 'NONE',  ( -1.355252715606880543E-17, 0.5000000000000000000, 0.2770833333333334036 ) ) ;
#920 = DIRECTION ( 'NONE',  ( -1.000000000000000000, 0.0000000000000000000, 1.084202172485504434E-16 ) ) ;
#921 = FACE_OUTER_BOUND ( 'NONE', #249, .T. ) ;
#922 =( NAMED_UNIT ( * ) SI_UNIT ( $, .STERADIAN. ) SOLID_ANGLE_UNIT ( ) );
#923 = ORIENTED_EDGE ( 'NONE', *, *, #864, .F. ) ;
#924 = DIRECTION ( 'NONE',  ( -1.000000000000000000, 0.0000000000000000000, 1.084202172485504434E-16 ) ) ;
#925 = CARTESIAN_POINT ( 'NONE',  ( 0.4999999999999998890, 0.5000000000000000000, 0.2499999999999998890 ) ) ;
#926 = DIRECTION ( 'NONE',  ( 0.0000000000000000000, 0.0000000000000000000, 1.000000000000000000 ) ) ;
#927 = AXIS2_PLACEMENT_3D ( 'NONE', #253, #619, #309 ) ;
#928 = ORIENTED_EDGE ( 'NONE', *, *, #295, .T. ) ;
#929 = DIRECTION ( 'NONE',  ( 0.0000000000000000000, 0.0000000000000000000, -1.000000000000000000 ) ) ;
#930 = EDGE_CURVE ( 'NONE', #671, #370, #168, .T. ) ;
#931 = DIRECTION ( 'NONE',  ( 0.0000000000000000000, 1.000000000000000000, 0.0000000000000000000 ) ) ;
#932 = FACE_OUTER_BOUND ( 'NONE', #569, .T. ) ;
#933 = COLOUR_RGB ( '',0.7921568627450980005, 0.8196078431372548767, 0.9333333333333333481 ) ;
#934 = CARTESIAN_POINT ( 'NONE',  ( -1.355252715606880543E-17, 0.0000000000000000000, -0.1000000000000000194 ) ) ;
#935 = PLANE ( 'NONE',  #373 ) ;
#936 = DIRECTION ( 'NONE',  ( 0.0000000000000000000, 0.0000000000000000000, 1.000000000000000000 ) ) ;
#937 = EDGE_LOOP ( 'NONE', ( #170, #631, #612 ) ) ;
#938 = DIRECTION ( 'NONE',  ( -1.000000000000000000, 0.0000000000000000000, 1.084202172485504434E-16 ) ) ;
#939 = VERTEX_POINT ( 'NONE', #620 ) ;
#940 = VECTOR ( 'NONE', #818, 1000.000000000000000 ) ;
ENDSEC;
END-ISO-10303-21;
